<?xml version="1.0" encoding="UTF-8"?>
<svg width="32px" height="33px" viewBox="0 0 32 33" version="1.1" xmlns="http://www.w3.org/2000/svg" xmlns:xlink="http://www.w3.org/1999/xlink">
    <defs>
        <linearGradient x1="86.7775662%" y1="78.996941%" x2="14.0452829%" y2="21.0498998%" id="linearGradient-1">
            <stop stop-color="#C3CAEA" offset="0%"></stop>
            <stop stop-color="#FDFDFD" offset="100%"></stop>
        </linearGradient>
        <path d="M23.6776316,9 C24.125,9 24.4572368,9.14647137 24.6743421,9.43941411 C24.8914474,9.73235686 24.9934211,10.0386152 24.9802632,10.3581891 L24.9802632,13.0146471 C24.9802632,13.7336884 24.9835526,14.5026631 24.9901316,15.3215712 C24.9967105,16.1404794 25,16.9094541 25,17.6284953 L25,20.4047936 C25,20.8308921 24.8519737,21.1471372 24.5559211,21.3535286 C24.2598684,21.5599201 23.9342105,21.6697736 23.5789474,21.6830892 L16.9078947,21.6830892 L16.9078947,23.1211718 L18.3881579,23.1211718 C18.5460526,23.1211718 18.6710526,23.1677763 18.7631579,23.2609854 C18.8552632,23.3541944 18.8947368,23.4540613 18.8815789,23.5605859 C18.8815789,23.6937417 18.8355263,23.8002663 18.7434211,23.8801598 C18.6513158,23.9600533 18.5328947,24 18.3881579,24 L13.6315789,24 C13.4868421,24 13.375,23.9533955 13.2960526,23.8601864 C13.2171053,23.7669774 13.1776316,23.6671105 13.1776316,23.5605859 C13.1776316,23.4540613 13.2105263,23.3575233 13.2763158,23.270972 C13.3421053,23.1844208 13.4605263,23.1411451 13.6315789,23.1411451 L15.1315789,23.1411451 L15.1315789,21.7030626 L8.44078947,21.7030626 C8.01973684,21.7030626 7.67434211,21.5532623 7.40460526,21.2536618 C7.13486842,20.9540613 7,20.5645806 7,20.0852197 L7,10.5778961 C7,10.0985353 7.14473684,9.71571238 7.43421053,9.42942743 C7.72368421,9.14314248 8.09210526,9 8.53947368,9 L23.6776316,9 Z M13.5378418,12.5397949 C12.4099121,12.5397949 12.4099121,12.5397949 11.8587646,13.1513672 C11.3076172,13.7629395 11.3076172,13.7629395 11.3076172,15.2937012 C11.3076172,15.9162598 11.3076172,15.9162598 11.4156494,16.4307861 C11.5236816,16.9453125 11.5236816,16.9453125 11.7177734,17.2419434 C11.9851074,17.6594238 11.9851074,17.6594238 12.4025879,17.8754883 C12.8200684,18.0915527 12.8200684,18.0915527 13.4975586,18.0915527 C14.7060547,18.0915527 14.7060547,18.0915527 15.2004395,17.4140625 C15.6948242,16.7365723 15.6948242,16.7365723 15.6948242,15.2753906 C15.6948242,14.6235352 15.6948242,14.6235352 15.5446777,14.0229492 C15.4677734,13.7080078 15.4677734,13.7080078 15.3414307,13.4718018 C15.2150879,13.2355957 15.2150879,13.2355957 14.9953613,13.0213623 C14.7756348,12.8071289 14.7756348,12.8071289 14.4277344,12.6734619 C14.079834,12.5397949 14.079834,12.5397949 13.5378418,12.5397949 Z M19.6901855,12.5397949 L18.4560547,12.5397949 C18.2180176,13.045166 18.2180176,13.045166 17.796875,13.3894043 C17.4358956,13.6844657 17.4358956,13.6844657 16.8246971,13.9068828 L16.6140137,13.9790039 L16.6140137,15.2021484 C17.1303711,15.0446777 17.1303711,15.0446777 17.4727783,14.8725586 C17.7295837,14.7434692 17.7295837,14.7434692 17.9997787,14.5546417 L18.1813965,14.4221191 L18.1813965,18 L19.6901855,18 L19.6901855,12.5397949 Z M13.4865723,13.5322266 C13.8491211,13.5322266 13.8491211,13.5322266 14.0303955,13.9002686 C14.2116699,14.2683105 14.2116699,14.2683105 14.2116699,15.3376465 C14.2116699,16.0664062 14.2116699,16.0664062 14.1329346,16.4106445 C14.0541992,16.7548828 14.0541992,16.7548828 13.8875732,16.9141846 C13.7209473,17.0734863 13.7209473,17.0734863 13.4938965,17.0734863 C13.1496582,17.0734863 13.1496582,17.0734863 12.9683838,16.6981201 C12.7871094,16.3227539 12.7871094,16.3227539 12.7871094,15.2973633 C12.7871094,14.282959 12.7871094,14.282959 12.9519043,13.9075928 C13.1166992,13.5322266 13.1166992,13.5322266 13.4865723,13.5322266 Z" id="path-26"></path>
        <filter x="-58.3%" y="-50.0%" width="216.7%" height="240.0%" filterUnits="objectBoundingBox" id="filter-3">
            <feOffset dx="0" dy="3" in="SourceAlpha" result="shadowOffsetOuter1"></feOffset>
            <feGaussianBlur stdDeviation="3" in="shadowOffsetOuter1" result="shadowBlurOuter1"></feGaussianBlur>
            <feColorMatrix values="0 0 0 0 0.21684124   0 0 0 0 0.325918763   0 0 0 0 0.804181749  0 0 0 1 0" type="matrix" in="shadowBlurOuter1"></feColorMatrix>
        </filter>
    </defs>
    <g id="页面-1" stroke="none" stroke-width="1" fill="none" fill-rule="evenodd">
        <g id="设备台账表" transform="translate(-341.000000, -838.000000)">
            <g id="编组" transform="translate(341.000000, 838.000000)">
                <rect id="关闭系统‘" fill="#637DEF" x="0" y="0" width="32" height="32" rx="7"></rect>
                <g id="形状结合" fill-rule="nonzero">
                    <use fill="black" fill-opacity="1" filter="url(#filter-3)" xlink:href="#path-26"></use>
                    <use fill="url(#linearGradient-1)" xlink:href="#path-26"></use>
                </g>
            </g>
        </g>
    </g>
</svg>