<?xml version="1.0" encoding="UTF-8"?>
<svg width="32px" height="34px" viewBox="0 0 32 34" version="1.1" xmlns="http://www.w3.org/2000/svg" xmlns:xlink="http://www.w3.org/1999/xlink">
    <title>公式</title>
    <defs>
        <linearGradient x1="86.7775662%" y1="91.7555951%" x2="14.0452829%" y2="8.31185571%" id="linearGradient-1">
            <stop stop-color="#C3CAEA" offset="0%"></stop>
            <stop stop-color="#FDFDFD" offset="100%"></stop>
        </linearGradient>
        <rect id="path-gongshi" x="0" y="0" width="18" height="18" rx="2"></rect>
        <filter x="-58.3%" y="-41.7%" width="216.7%" height="216.7%" filterUnits="objectBoundingBox" id="filter-3">
            <feOffset dx="0" dy="3" in="SourceAlpha" result="shadowOffsetOuter1"></feOffset>
            <feGaussianBlur stdDeviation="3" in="shadowOffsetOuter1" result="shadowBlurOuter1"></feGaussianBlur>
            <feColorMatrix values="0 0 0 0 0.21684124   0 0 0 0 0.325918763   0 0 0 0 0.804181749  0 0 0 1 0" type="matrix" in="shadowBlurOuter1"></feColorMatrix>
        </filter>
    </defs>
    <g id="页面-1" stroke="none" stroke-width="1" fill="none" fill-rule="evenodd">
        <g id="设备台账表" transform="translate(-341.000000, -678.000000)">
            <g id="公式" transform="translate(341.000000, 678.000000)">
                <rect id="关闭系统‘" fill="#637DEF" x="0" y="0" width="32" height="32" rx="7"></rect>
                <g id="编组-4" transform="translate(7.000000, 7.000000)" fill-rule="nonzero">
                    <g id="矩形">
                        <use fill="black" fill-opacity="1" filter="url(#filter-3)" xlink:href="#path-gongshi"></use>
                        <use fill="url(#linearGradient-1)" xlink:href="#path-gongshi"></use>
                    </g>
                    <g id="gongshi" transform="translate(3.000000, 3.000000)" fill="#637DEF">
                        <path d="M11.9887584,3.86235889 C11.9887584,3.78043633 12.0230316,3.6165912 11.9339213,3.6165912 L10.73436,3.6165912 C10.6521044,3.6165912 10.5424302,3.71216752 10.4875931,3.77360945 L9.25375863,5.22773491 C9.19892154,5.28917683 9.12352054,5.29600371 9.08924736,5.21408115 L8.40378376,3.78726321 C8.36951058,3.71216752 8.26669104,3.60976432 8.18443541,3.60976432 L6.23771878,3.60976432 C6.15546314,3.60976432 5.99095188,3.77360945 5.99095188,3.85553201 L5.99095188,3.76678257 C5.99095188,3.68486 5.92240552,3.6165912 5.84014989,3.6165912 L4.61317004,3.6165912 L4.9284833,2.33313774 C4.97646575,2.08737005 5.33290682,1.75285293 5.52483663,1.61631532 C6.42964859,0.967761713 7.49211717,1.37737452 8.23927249,1.4866046 L8.23927249,0.257766179 C7.49211717,0.0939210563 5.8812777,-0.431748714 4.4349495,0.756128429 C4.05794452,1.06333803 3.68779418,1.54121964 3.51642828,2.3126571 L3.18740575,3.6165912 L0.897957318,3.6165912 C0.815701686,3.6165912 0.747155326,3.68486 0.747155326,3.76678257 L0.747155326,4.98879411 C0.747155326,5.07071667 0.815701686,5.13898547 0.897957318,5.13898547 L2.80354613,5.13898547 L1.62454874,9.80857148 C1.40520038,10.7028928 0.849974866,10.4776057 0.849974866,10.4776057 L0,10.4776057 L0,12 L0.84312023,12 C1.42576429,12 2.01526299,11.9795194 2.37170406,11.6313485 C2.73499977,11.2831776 2.93378422,10.5936627 3.09144084,9.84953276 L4.2430197,5.13215859 L5.84700452,5.13215859 C5.92926016,5.13215859 5.99780652,5.06388979 5.99780652,4.98196723 L5.99780652,5.07754355 C5.99780652,5.15946611 6.16231778,5.13898547 6.24457341,5.13898547 L7.44413472,5.13898547 C7.52639035,5.13898547 7.62235525,5.24821555 7.66348307,5.32331123 L8.14330759,6.32003573 C8.17758077,6.40878517 8.1638715,6.5043615 8.10903441,6.57945718 L6.75181648,8.11550521 C6.69697939,8.17694713 6.58730521,8.19060089 6.50504958,8.19060089 L5.49056345,8.19060089 C5.40830782,8.19060089 5.24379655,8.35444601 5.24379655,8.43636857 L5.24379655,9.65838012 C5.24379655,9.74030268 5.40830782,9.71982204 5.49056345,9.71982204 L6.69012475,9.71982204 C6.77238039,9.71982204 6.88205456,9.71299516 6.93689165,9.65155324 L8.65055066,7.68541176 C8.70538774,7.62396984 8.78078874,7.64445048 8.81506192,7.71954616 L9.77471096,9.62424572 C9.80898414,9.6993414 9.91180368,9.71982204 9.99405932,9.71982204 L11.1936206,9.71982204 C11.2758763,9.71982204 11.2484577,9.74712956 11.2484577,9.65838012 L11.2484577,8.43636857 C11.2484577,8.35444601 11.2827309,8.19060089 11.1936206,8.19060089 L10.7412146,8.19060089 C10.658959,8.19060089 10.5629941,8.17694713 10.5218663,8.10185145 L9.76785633,6.59311094 C9.73358315,6.5043615 9.74043778,6.40878517 9.80212951,6.32686261 L10.6795229,5.29600371 C10.73436,5.23456179 10.8440342,5.13215859 10.9262898,5.13215859 L11.9407759,5.13215859 C12.0230316,5.13215859 11.995613,5.15946611 11.995613,5.07071667 L11.9887584,3.86235889 Z" id="路径"></path>
                    </g>
                </g>
            </g>
        </g>
    </g>
</svg>