<?xml version="1.0" encoding="UTF-8"?>
<svg width="32px" height="34px" viewBox="0 0 32 34" version="1.1" xmlns="http://www.w3.org/2000/svg" xmlns:xlink="http://www.w3.org/1999/xlink">
    <defs>
        <linearGradient x1="86.7775662%" y1="87.2449598%" x2="14.0452829%" y2="12.8152046%" id="linearGradient-18">
            <stop stop-color="#C3CAEA" offset="0%"></stop>
            <stop stop-color="#FDFDFD" offset="100%"></stop>
        </linearGradient>
        <path d="M12,13 C12.5522847,13 13,13.4477153 13,14 L13,24 C13,24.5522847 12.5522847,25 12,25 L9,25 C8.44771525,25 8,24.5522847 8,24 L8,14 C8,13.4477153 8.44771525,13 9,13 L12,13 Z M25,13 C25.5522847,13 26,13.4477153 26,14 L26,24 C26,24.5522847 25.5522847,25 25,25 L15,25 C14.4477153,25 14,24.5522847 14,24 L14,14 C14,13.4477153 14.4477153,13 15,13 L25,13 Z M23.4950328,20.165338 C23.0468543,19.720161 22.4085936,19.5895948 21.8410321,19.7573634 L21.8410321,19.7573634 L24.1000022,22.0147272 L23.038621,23.0755327 L20.7492234,20.7879418 C20.5439276,21.3694084 20.670112,22.0404828 21.1381579,22.505513 L21.1381579,22.505513 L22.3162374,23.6752427 C22.9672059,24.3218136 23.6060035,23.9081156 24.2564351,23.2615447 C24.9074037,22.6153316 25.3239019,21.9814597 24.6732913,21.3352466 L24.6732913,21.3352466 Z M20.3649425,18.749321 C20.2020662,18.5881702 19.8729127,18.6534533 19.6285981,18.8958056 C19.3844625,19.137979 19.8430222,19.3377631 20.0057196,19.4994505 L20.0057196,19.4994505 L21.507046,20.9998883 C21.6697434,21.1613968 21.5686169,21.3069871 21.8125735,21.0648137 C22.0563511,20.8222825 22.2063406,20.5813611 22.0436432,20.4194949 L22.0436432,20.4194949 Z M19.7318725,16.3324161 C19.0698069,15.6745772 18.4129318,16.0886329 17.7510451,16.7459352 C17.0891585,17.4034164 16.6724813,18.0555318 17.334547,18.7126552 L17.334547,18.7126552 L18.5330307,19.9029536 C19.0017925,20.3688781 19.6758502,20.4978345 20.2645319,20.3039527 L20.2645319,20.3039527 L17.9128476,17.953404 L18.9745868,16.8925986 L21.3319987,19.2481553 C21.5303141,18.6618596 21.4012659,17.989891 20.9308932,17.5223568 L20.9308932,17.5223568 Z M25,8 C25.5522847,8 26,8.44771525 26,9 L26,11 C26,11.5522847 25.5522847,12 25,12 L9,12 C8.44771525,12 8,11.5522847 8,11 L8,9 C8,8.44771525 8.44771525,8 9,8 L25,8 Z" id="path-18"></path>
        <filter x="-58.3%" y="-44.1%" width="216.7%" height="223.5%" filterUnits="objectBoundingBox" id="filter-3">
            <feOffset dx="0" dy="3" in="SourceAlpha" result="shadowOffsetOuter1"></feOffset>
            <feGaussianBlur stdDeviation="3" in="shadowOffsetOuter1" result="shadowBlurOuter1"></feGaussianBlur>
            <feColorMatrix values="0 0 0 0 0.21684124   0 0 0 0 0.325918763   0 0 0 0 0.804181749  0 0 0 1 0" type="matrix" in="shadowBlurOuter1"></feColorMatrix>
        </filter>
    </defs>
    <g id="页面-1" stroke="none" stroke-width="1" fill="none" fill-rule="evenodd">
        <g id="设备台账表" transform="translate(-46.000000, -518.000000)">
            <g id="关联工作表" transform="translate(46.000000, 518.000000)">
                <rect id="矩形" fill="#637DEF" x="0" y="0" width="32" height="32" rx="7"></rect>
                <g id="形状结合" fill-rule="nonzero">
                    <use fill="black" fill-opacity="1" filter="url(#filter-3)" xlink:href="#path-18"></use>
                    <use fill="url(#linearGradient-18)" xlink:href="#path-18"></use>
                </g>
            </g>
        </g>
    </g>
</svg>