<?xml version="1.0" encoding="UTF-8"?>
<svg width="29px" height="29px" viewBox="0 0 29 29" version="1.1" xmlns="http://www.w3.org/2000/svg" xmlns:xlink="http://www.w3.org/1999/xlink">
    <g id="页面-1" stroke="none" stroke-width="1" fill="none" fill-rule="evenodd">
        <g id="设备台账表" transform="translate(-17.000000, -80.000000)">
            <g id="起始节点" transform="translate(17.000000, 80.000000)">
                <circle id="椭圆形" fill="#4760CF" cx="14.5" cy="14.5" r="14.5"></circle>
                <g id="jiedian" transform="translate(7.000000, 7.000000)" fill="#FFFFFF">
                    <path d="M13.7895633,11.63828 C12.8420991,11.63828 12.0340784,12.2421096 11.7314031,13.0845354 L3.80957597,13.0845354 C2.54942045,13.0845354 1.52386168,12.1061035 1.5238617,10.9037534 C1.5238617,9.70062264 2.54942046,8.72297152 3.80957597,8.72297152 L5.94426566,8.72297152 C6.24960141,9.56024436 7.05511812,10.1597018 7.99898274,10.1597018 C8.94237786,10.1597018 9.74805107,9.56008822 10.0536998,8.72297152 L12.1905805,8.72297152 C14.2909962,8.72312767 16,7.09261609 16,5.08843909 C16,3.08426209 14.2909962,1.45375052 12.190424,1.45375052 L4.25091211,1.45375052 C3.95027142,0.607421 3.13990316,0 2.19009147,0 C0.984398688,0 0.00438206646,0.977651125 0.00438206646,2.18062577 C0.00438206646,3.38297581 0.984398688,4.36140769 2.19009147,4.36140769 C3.13974667,4.36140769 3.94995844,3.75367439 4.25075562,2.90765717 L12.190424,2.90765717 C13.4505796,2.90765717 14.4761383,3.88608905 14.4761383,5.08843909 C14.4761383,6.29156989 13.4505796,7.26922102 12.190424,7.26922102 L10.065907,7.26922102 C9.77011788,6.41399098 8.95521104,5.79829408 7.99913925,5.79829406 C7.04244145,5.79829406 6.22800412,6.41383483 5.93237151,7.26922102 L3.80957597,7.26922102 C1.70900376,7.26922102 0,8.89973259 0,10.9039096 C0,12.9080866 1.70900377,14.5385982 3.80957597,14.5385982 L11.7262386,14.5385982 C12.0246882,15.3885191 12.8366215,16 13.7895633,16 C14.99463,16 15.9752727,15.0215681 15.9752727,13.8192181 C15.9754292,12.6160873 14.99463,11.63828 13.7895633,11.63828 Z M2.18899595,3.23494622 C1.60696436,3.23494622 1.13385827,2.76259442 1.13385827,2.18218727 C1.13385827,1.60146781 1.60696434,1.1294283 2.18899595,1.1294283 C2.77071453,1.1294283 3.24413361,1.6014678 3.24413361,2.18218727 C3.24413361,2.76259442 2.77071453,3.23494622 2.18899595,3.23494622 L2.18899595,3.23494622 Z M7.99898274,6.92647317 C8.58070132,6.92647317 9.05412042,7.39851267 9.05412042,7.97923214 C9.05412042,8.5596393 8.58070134,9.03199109 7.99898274,9.03199109 C7.41695115,9.03199109 6.94384506,8.5596393 6.94384506,7.97923214 C6.94400157,7.39835653 7.41695113,6.92647317 7.99898274,6.92647317 L7.99898274,6.92647317 Z M13.7895633,14.8718209 C13.2075317,14.8718209 12.7344256,14.3994691 12.7344256,13.8190619 C12.7344256,13.2383425 13.2075317,12.766303 13.7895633,12.766303 C14.3712818,12.766303 14.8447009,13.2383425 14.8447009,13.8190619 C14.8447009,14.3994691 14.3712819,14.8718209 13.7895633,14.8718209 Z" id="形状"></path>
                </g>
            </g>
        </g>
    </g>
</svg>