<?xml version="1.0" encoding="UTF-8"?>
<svg width="32px" height="34px" viewBox="0 0 32 34" version="1.1" xmlns="http://www.w3.org/2000/svg" xmlns:xlink="http://www.w3.org/1999/xlink">
    <defs>
        <linearGradient x1="72.2481573%" y1="91.7555951%" x2="28.2496156%" y2="8.31185571%" id="linearGradient-1">
            <stop stop-color="#C3CAEA" offset="0%"></stop>
            <stop stop-color="#FDFDFD" offset="100%"></stop>
        </linearGradient>
        <path d="M6.99961302,0 C3.13382952,0 0,3.22053301 0,7.19285861 C0,11.16554 5.48580556,17.2465225 5.48580556,17.2465225 C6.32181524,18.2492057 7.69097532,18.2550661 8.51920475,17.2406621 C8.51920475,17.2406621 14,11.1659168 14,7.19285861 C14,3.2201772 10.8661501,0 6.99961302,0 Z M6.99961302,10.2913894 C5.21143993,10.2913894 3.7617482,8.80161814 3.7617482,6.96323316 C3.7617482,5.12555981 5.21143993,3.63578858 6.99961302,3.63578858 C8.78858044,3.63578858 10.2382722,5.12555981 10.2382722,6.96323316 C10.2382722,8.80163907 8.78858044,10.2913894 6.99961302,10.2913894 Z" id="path-1"></path>
        <filter x="-75.0%" y="-41.7%" width="250.0%" height="216.7%" filterUnits="objectBoundingBox" id="filter-3">
            <feOffset dx="0" dy="3" in="SourceAlpha" result="shadowOffsetOuter1"></feOffset>
            <feGaussianBlur stdDeviation="3" in="shadowOffsetOuter1" result="shadowBlurOuter1"></feGaussianBlur>
            <feColorMatrix values="0 0 0 0 0.21684124   0 0 0 0 0.325918763   0 0 0 0 0.804181749  0 0 0 1 0" type="matrix" in="shadowBlurOuter1"></feColorMatrix>
        </filter>
    </defs>
    <g id="页面-2" stroke="none" stroke-width="1" fill="none" fill-rule="evenodd">
        <g id="设备台账表" transform="translate(-246.000000, -295.000000)">
            <g id="定位" transform="translate(246.000000, 295.000000)">
                <rect id="关闭系统‘" fill="#637DEF" x="0" y="0" width="32" height="32" rx="7"></rect>
                <g id="icon_diqu" transform="translate(9.000000, 7.000000)" fill-rule="nonzero">
                    <g id="形状">
                        <use fill="black" fill-opacity="1" filter="url(#filter-3)" xlink:href="#path-1"></use>
                        <use fill="url(#linearGradient-1)" xlink:href="#path-1"></use>
                    </g>
                </g>
            </g>
        </g>
    </g>
</svg>