<?xml version="1.0" encoding="UTF-8"?>
<svg width="32px" height="33px" viewBox="0 0 32 33" version="1.1" xmlns="http://www.w3.org/2000/svg" xmlns:xlink="http://www.w3.org/1999/xlink">
    <defs>
        <linearGradient x1="86.7775662%" y1="78.996941%" x2="14.0452829%" y2="21.0498998%" id="linearGradient-3">
            <stop stop-color="#C3CAEA" offset="0%"></stop>
            <stop stop-color="#FDFDFD" offset="100%"></stop>
        </linearGradient>
        <path d="M23,9 C24.1045695,9 25,9.8954305 25,11 L25,22 C25,23.1045695 24.1045695,24 23,24 L9,24 C7.8954305,24 7,23.1045695 7,22 L7,11 C7,9.8954305 7.8954305,9 9,9 L23,9 Z M22.25,20 L9.75,20 C9.33578644,20 9,20.3357864 9,20.75 C9,21.1642136 9.33578644,21.5 9.75,21.5 L9.75,21.5 L22.25,21.5 C22.6642136,21.5 23,21.1642136 23,20.75 C23,20.3357864 22.6642136,20 22.25,20 L22.25,20 Z M14.25,12 L9.75,12 C9.33578644,12 9,12.3357864 9,12.75 C9,13.1642136 9.33578644,13.5 9.75,13.5 L9.75,13.5 L11.25,13.5 L11.25,18 C11.25,18.3796958 11.5321539,18.693491 11.8982294,18.7431534 L12,18.75 C12.4142136,18.75 12.75,18.4142136 12.75,18 L12.75,18 L12.75,13.5 L14.25,13.5 C14.6296958,13.5 14.943491,13.2178461 14.9931534,12.8517706 L15,12.75 C15,12.3357864 14.6642136,12 14.25,12 L14.25,12 Z" id="path-3"></path>
        <filter x="-58.3%" y="-50.0%" width="216.7%" height="240.0%" filterUnits="objectBoundingBox" id="filter-3">
            <feOffset dx="0" dy="3" in="SourceAlpha" result="shadowOffsetOuter1"></feOffset>
            <feGaussianBlur stdDeviation="3" in="shadowOffsetOuter1" result="shadowBlurOuter1"></feGaussianBlur>
            <feColorMatrix values="0 0 0 0 0.21684124   0 0 0 0 0.325918763   0 0 0 0 0.804181749  0 0 0 1 0" type="matrix" in="shadowBlurOuter1"></feColorMatrix>
        </filter>
    </defs>
    <g id="页面-3" stroke="none" stroke-width="1" fill="none" fill-rule="evenodd">
        <g id="设备台账表" transform="translate(-246.000000, -758.000000)">
            <g id="副文本" transform="translate(246.000000, 758.000000)">
                <rect id="关闭系统‘" fill="#637DEF" x="0" y="0" width="32" height="32" rx="7"></rect>
                <g id="形状结合" fill-rule="nonzero">
                    <use fill="black" fill-opacity="1" filter="url(#filter-3)" xlink:href="#path-3"></use>
                    <use fill="url(#linearGradient-3)" xlink:href="#path-3"></use>
                </g>
            </g>
        </g>
    </g>
</svg>