<?xml version="1.0" encoding="UTF-8"?>
<svg width="32px" height="32px" viewBox="0 0 32 32" version="1.1" xmlns="http://www.w3.org/2000/svg" xmlns:xlink="http://www.w3.org/1999/xlink">
    <defs>
        <linearGradient x1="86.7775662%" y1="62.8875293%" x2="14.0452829%" y2="37.1332888%" id="linearGradient-4">
            <stop stop-color="#C3CAEA" offset="0%"></stop>
            <stop stop-color="#FDFDFD" offset="100%"></stop>
        </linearGradient>
        <path d="M4.92572015,0 C5.90255644,0 6.81297979,0.2886356 7.57873459,0.786471117 C6.63233968,1.92452676 6.0624248,3.39470435 6.0624248,5 C6.0624248,6.60529565 6.63233968,8.07547324 7.57799006,9.21342515 C6.81297979,9.7113644 5.90255644,10 4.92572015,10 C2.20532003,10 0,7.76142375 0,5 C0,2.23857625 2.20532003,0 4.92572015,0 Z M12.7894737,0 C15.6671679,0 18,2.23857625 18,5 C18,7.76142375 15.6671679,10 12.7894737,10 C9.91177946,10 7.57894737,7.76142375 7.57894737,5 C7.57894737,2.23857625 9.91177946,0 12.7894737,0 Z" id="path-4"></path>
        <filter x="-58.3%" y="-75.0%" width="216.7%" height="310.0%" filterUnits="objectBoundingBox" id="filter-3">
            <feOffset dx="0" dy="3" in="SourceAlpha" result="shadowOffsetOuter1"></feOffset>
            <feGaussianBlur stdDeviation="3" in="shadowOffsetOuter1" result="shadowBlurOuter1"></feGaussianBlur>
            <feColorMatrix values="0 0 0 0 0.21684124   0 0 0 0 0.325918763   0 0 0 0 0.804181749  0 0 0 1 0" type="matrix" in="shadowBlurOuter1"></feColorMatrix>
        </filter>
    </defs>
    <g id="页面-1" stroke="none" stroke-width="1" fill="none" fill-rule="evenodd">
        <g id="设备台账表" transform="translate(-46.000000, -295.000000)">
            <g id="布尔" transform="translate(46.000000, 295.000000)">
                <rect id="关闭系统‘" fill="#637DEF" x="0" y="0" width="32" height="32" rx="7"></rect>
                <g id="编组-5" transform="translate(7.000000, 11.000000)" fill-rule="nonzero">
                    <g id="形状结合">
                        <use fill="black" fill-opacity="1" filter="url(#filter-3)" xlink:href="#path-4"></use>
                        <use fill="url(#linearGradient-4)" xlink:href="#path-4"></use>
                    </g>
                </g>
            </g>
        </g>
    </g>
</svg>