<?xml version="1.0" encoding="UTF-8"?>
<svg width="32px" height="34px" viewBox="0 0 32 34" version="1.1" xmlns="http://www.w3.org/2000/svg" xmlns:xlink="http://www.w3.org/1999/xlink">
    <defs>
        <linearGradient x1="86.7775662%" y1="91.7555951%" x2="14.0452829%" y2="8.31185571%" id="linearGradient-19">
            <stop stop-color="#C3CAEA" offset="0%"></stop>
            <stop stop-color="#FDFDFD" offset="100%"></stop>
        </linearGradient>
        <path d="M14.7917647,0 L3.21458824,0 C1.44018752,0.00244449905 0.00233320244,1.50888622 0,3.36792802 L0,14.6431653 C0.00815110928,16.4978734 1.44430662,17.9975792 3.21458824,18 L14.7917647,18 C16.5595665,17.993927 17.9918683,16.4952838 18,14.6431653 L18,3.36792802 C17.9976781,1.51147762 16.5636839,0.0061051473 14.7917647,0 Z M5.05058824,12.3646 L3.86894117,12.3646 L3.86894117,7.49907555 C3.74611764,7.59004066 3.61058824,7.68322445 3.46235294,7.77418958 C3.19265252,7.94724724 2.90925713,8.09570408 2.61529411,8.21792185 L2.32941177,8.31554295 L2.32941177,7.08196721 L2.45223529,7.02206336 C2.84122486,6.83339179 3.20213467,6.5867881 3.5237647,6.28990509 C3.78167081,6.06536309 3.99715098,5.79219491 4.15905882,5.48453101 L4.21835294,5.36028595 L5.05482352,5.36028595 L5.05058824,12.3646 Z M11.0350588,12.3646 L6.50329412,12.3646 L6.50329412,12.1427339 C6.4959782,11.923117 6.53127885,11.7042289 6.60705882,11.4993221 C6.73448369,11.1577689 6.91715908,10.841789 7.14705882,10.5652656 C7.4614627,10.1960442 7.8058092,9.85605724 8.17623529,9.54911871 C8.66552287,9.15539803 9.11155203,8.70595153 9.50611764,8.20904722 C9.69329259,7.97301257 9.80447029,7.68103351 9.82376471,7.37483052 C9.82849091,7.13125693 9.73372178,6.8971592 9.56329411,6.73141871 C9.37269118,6.54715669 9.11923733,6.45117696 8.86023529,6.46517934 C8.58831328,6.44905273 8.32220071,6.55189777 8.12541175,6.74916801 C7.93331938,6.96824411 7.83468294,7.25984342 7.85223529,7.55676076 L7.85223529,7.80081351 L6.62611764,7.66769382 L6.64517647,7.44582769 C6.66687743,6.85434291 6.91128756,6.29593745 7.32494118,5.8927647 C7.76160512,5.51786954 8.31537107,5.32579318 8.87929411,5.35362998 C9.45470115,5.32367311 10.0180515,5.5334415 10.4463529,5.93713793 C10.8312313,6.31062786 11.0454492,6.83861836 11.0350588,7.38814249 C11.0344714,7.683395 10.9768436,7.97546758 10.865647,8.24676446 C10.7297536,8.56192715 10.5459539,8.85190193 10.3214118,9.10538641 C9.94456767,9.522179 9.54281642,9.91345235 9.11858823,10.2768396 C8.66541176,10.6761987 8.37317647,10.9424381 8.25035293,11.0822137 L8.19741177,11.1421176 L11.0414118,11.1421176 L11.0350588,12.3646 Z M15.2894118,11.8232466 C14.8449674,12.2660094 14.2507321,12.5054636 13.6376471,12.4888451 C13.0847177,12.506952 12.5460893,12.3029707 12.132,11.9186491 C11.7307236,11.5394289 11.4848875,11.0123791 11.4458823,10.4476766 L11.4247059,10.2258104 L12.5894118,10.0638481 L12.629647,10.2657463 C12.6680366,10.5883749 12.8021006,10.8902453 13.0129412,11.1288056 C13.1857452,11.294672 13.4140512,11.3823774 13.6482353,11.3728584 C13.9315049,11.3777012 14.2039019,11.2587214 14.4,11.0444965 C14.6074219,10.8303111 14.720234,10.5352297 14.7112941,10.2302478 C14.7215175,9.94872392 14.619481,9.67543599 14.429647,9.47590288 C14.235673,9.27735326 13.9721313,9.17140291 13.7011765,9.18303957 C13.5370174,9.18875661 13.3741504,9.21558147 13.2162353,9.26291137 L12.9176471,9.34722051 L13.068,8.10033281 L13.2797647,8.12473808 L13.3792941,8.12473808 C13.6494872,8.13191263 13.9156058,8.05467915 14.1437647,7.90287193 C14.3465282,7.76275967 14.4595641,7.51738403 14.4381176,7.26389745 C14.4475712,7.05102579 14.3706455,6.84389608 14.2263529,6.69370147 C14.0668418,6.53935851 13.8544486,6.45931366 13.6376471,6.47183533 C13.4159489,6.46340947 13.2002153,6.54806876 13.0383529,6.70701343 C12.8554239,6.91450771 12.7436611,7.17992077 12.7207059,7.46135831 L12.6868235,7.68322445 L11.4988235,7.46135831 L11.5369412,7.23949218 C11.6110326,6.70698533 11.8622841,6.2190157 12.2463529,5.86170345 C12.6311259,5.52567722 13.1200187,5.34888856 13.6207059,5.36472329 C13.980235,5.36092634 14.3353744,5.44766891 14.6562353,5.61765069 C14.9632264,5.77570388 15.2210095,6.02193033 15.3995294,6.32762234 C15.5678675,6.61544731 15.6572564,6.94630285 15.6578823,7.28386539 C15.6596015,7.59930262 15.571896,7.90817357 15.4058823,8.17132996 C15.3158614,8.31683801 15.2035272,8.44577529 15.0734118,8.55293973 C15.2850564,8.66490666 15.4696919,8.82572977 15.6134118,9.02329594 C15.8475737,9.36752054 15.9660059,9.78346689 15.9501176,10.2058425 C15.9601517,10.8190316 15.7197547,11.407522 15.2894118,11.8232466 L15.2894118,11.8232466 Z" id="path-19"></path>
        <filter x="-58.3%" y="-41.7%" width="216.7%" height="216.7%" filterUnits="objectBoundingBox" id="filter-3">
            <feOffset dx="0" dy="3" in="SourceAlpha" result="shadowOffsetOuter1"></feOffset>
            <feGaussianBlur stdDeviation="3" in="shadowOffsetOuter1" result="shadowBlurOuter1"></feGaussianBlur>
            <feColorMatrix values="0 0 0 0 0.21684124   0 0 0 0 0.325918763   0 0 0 0 0.804181749  0 0 0 1 0" type="matrix" in="shadowBlurOuter1"></feColorMatrix>
        </filter>
    </defs>
    <g id="页面-1" stroke="none" stroke-width="1" fill="none" fill-rule="evenodd">
        <g id="设备台账表" transform="translate(-146.000000, -135.000000)">
            <g id="数值" transform="translate(146.000000, 135.000000)">
                <rect id="矩形" fill="#637DEF" x="0" y="0" width="32" height="32" rx="7"></rect>
                <g id="shuzhi" transform="translate(7.000000, 7.000000)" fill-rule="nonzero">
                    <g id="形状">
                        <use fill="black" fill-opacity="1" filter="url(#filter-3)" xlink:href="#path-19"></use>
                        <use fill="url(#linearGradient-19)" xlink:href="#path-19"></use>
                    </g>
                </g>
            </g>
        </g>
    </g>
</svg>