<?xml version="1.0" encoding="UTF-8"?>
<svg width="32px" height="34px" viewBox="0 0 32 34" version="1.1" xmlns="http://www.w3.org/2000/svg" xmlns:xlink="http://www.w3.org/1999/xlink">
    <defs>
        <linearGradient x1="86.7775662%" y1="91.7555951%" x2="14.0452829%" y2="8.31185571%" id="linearGradient-14">
            <stop stop-color="#C3CAEA" offset="0%"></stop>
            <stop stop-color="#FDFDFD" offset="100%"></stop>
        </linearGradient>
        <path d="M23,7 C24.1045695,7 25,7.8954305 25,9 L25,23 C25,24.1045695 24.1045695,25 23,25 L9,25 C7.8954305,25 7,24.1045695 7,23 L7,9 C7,7.8954305 7.8954305,7 9,7 L23,7 Z M13.2647179,10.4694143 C12.3741855,11.1880893 12.2423564,12.4760244 12.9695005,13.3536093 L11.2724756,15.5636348 C10.4478539,15.3109257 9.55839212,15.6856693 9.17844346,16.445882 C8.79849481,17.2060946 9.04180864,18.1241831 9.75126966,18.6073093 C10.4607307,19.0904354 11.4239398,18.9939603 12.0189229,18.380181 C12.613906,17.7664017 12.6625365,16.819072 12.1334121,16.1499122 L13.8115384,13.964572 C14.1943409,14.115812 14.6140222,14.1537195 15.0185994,14.073599 L17.1817899,18.3030243 C16.4627081,18.8365606 16.1717988,19.7603949 16.4590962,20.5980667 C16.7463935,21.4357385 17.5476994,22 18.4497464,22 C19.3304546,22 20.1175152,21.4613972 20.4208501,20.6514008 C20.724185,19.8414044 20.4793331,18.9320374 19.8076463,18.3739947 L20.7399776,16.4859074 C21.6860424,16.6496393 22.610489,16.1049117 22.9062283,15.2094502 C23.2019675,14.3139886 22.7784364,13.3420065 21.9137701,12.9318098 C21.0491038,12.5216131 20.0080855,12.7988145 19.4743574,13.5813744 C18.9406294,14.3639343 19.077633,15.4122127 19.7953972,16.0377995 L18.8630659,17.9255439 C18.6279063,17.8795599 18.3864658,17.8731829 18.1491186,17.9066871 L15.9582801,13.6258339 C16.8381086,12.8946157 16.9509084,11.6049474 16.2108833,10.7377576 C15.4708583,9.87056781 14.1552504,9.75073933 13.2647179,10.4694143 Z M18.4497464,19.0079285 C18.9768357,19.0079285 19.404126,19.4265235 19.404126,19.9428865 C19.404126,20.4592496 18.9768357,20.8778446 18.4497464,20.8778446 C17.9226571,20.8778446 17.4953668,20.4592496 17.4953668,19.9428865 C17.4953668,19.4265235 17.9226571,19.0079285 18.4497464,19.0079285 Z M10.7503141,16.4207654 C11.1896073,16.4208272 11.5456912,16.769715 11.5456912,17.2000686 C11.5456912,17.6304221 11.1896073,17.9793099 10.7503141,17.9793717 C10.4660852,17.9794117 10.2034295,17.8308861 10.0613032,17.5897525 C9.91917699,17.3486188 9.91917699,17.0515184 10.0613032,16.8103847 C10.2034295,16.5692511 10.4660852,16.4207255 10.7503141,16.4207654 Z M21.0745529,13.7715462 C21.5577664,13.7715462 21.9494884,14.1552966 21.9494884,14.6286768 C21.9494884,15.1020569 21.5577664,15.4858074 21.0745529,15.4858074 C20.5913393,15.4858074 20.1996174,15.1020569 20.1996174,14.6286768 C20.1996174,14.1552966 20.5913393,13.7715462 21.0745529,13.7715462 Z M14.6000303,11.1223269 C15.1271196,11.1223269 15.5544099,11.5409218 15.5544099,12.0572849 C15.5544099,12.573648 15.1271196,12.992243 14.6000303,12.992243 C14.072941,12.992243 13.6456507,12.573648 13.6456507,12.0572849 C13.6456507,11.5409218 14.072941,11.1223269 14.6000303,11.1223269 Z" id="path-14"></path>
        <filter x="-58.3%" y="-41.7%" width="216.7%" height="216.7%" filterUnits="objectBoundingBox" id="filter-3">
            <feOffset dx="0" dy="3" in="SourceAlpha" result="shadowOffsetOuter1"></feOffset>
            <feGaussianBlur stdDeviation="3" in="shadowOffsetOuter1" result="shadowBlurOuter1"></feGaussianBlur>
            <feColorMatrix values="0 0 0 0 0.21684124   0 0 0 0 0.325918763   0 0 0 0 0.804181749  0 0 0 1 0" type="matrix" in="shadowBlurOuter1"></feColorMatrix>
        </filter>
    </defs>
    <g id="页面-1" stroke="none" stroke-width="1" fill="none" fill-rule="evenodd">
        <g id="设备台账表" transform="translate(-46.000000, -838.000000)">
            <g id="数据点" transform="translate(46.000000, 838.000000)">
                <rect id="关闭系统‘" fill="#637DEF" x="0" y="0" width="32" height="32" rx="7"></rect>
                <g id="形状结合" fill-rule="nonzero">
                    <use fill="black" fill-opacity="1" filter="url(#filter-3)" xlink:href="#path-14"></use>
                    <use fill="url(#linearGradient-14)" xlink:href="#path-14"></use>
                </g>
            </g>
        </g>
    </g>
</svg>