<?xml version="1.0" encoding="UTF-8"?>
<svg width="32px" height="34px" viewBox="0 0 32 34" version="1.1" xmlns="http://www.w3.org/2000/svg" xmlns:xlink="http://www.w3.org/1999/xlink">
    <defs>
        <linearGradient x1="86.7775662%" y1="79.4281164%" x2="14.0452829%" y2="20.6194209%" id="linearGradient-6">
            <stop stop-color="#C3CAEA" offset="0%"></stop>
            <stop stop-color="#FDFDFD" offset="100%"></stop>
        </linearGradient>
        <path d="M16.6415094,1.89598831 L13.245283,1.89598831 L13.245283,3.18808237 C13.245283,3.49690706 13.0720755,3.79863232 12.7867925,3.89092475 C12.3181132,4.04711195 11.8867925,3.68504163 11.8867925,3.21648005 L11.8867925,1.8924386 L5.77358491,1.8924386 L5.77358491,3.18453267 C5.77358491,3.49335735 5.60037736,3.79508261 5.31509434,3.88737504 C4.84641509,4.04356224 4.41509434,3.68149192 4.41509434,3.21293034 L4.41509434,1.88888889 L1.35849057,1.88888889 C0.607924528,1.88888889 0,2.5242868 0,3.30877248 L0,15.5801164 C0,16.3646021 0.607924528,17 1.35849057,17 L16.6415094,17 C17.3920755,17 18,16.3646021 18,15.5801164 L18,3.3158719 C18,2.53138621 17.3920755,1.89598831 16.6415094,1.89598831 L16.6415094,1.89598831 Z M4.25886792,14.4619581 L3.06679245,13.2160102 C2.99401384,12.7410684 3.14360045,12.2584596 3.46900926,11.9183449 C3.79441807,11.5782302 4.25615977,11.4218835 4.71056604,11.4979511 L5.90264151,12.7438989 C5.97542013,13.2188408 5.82583351,13.7014495 5.50042471,14.0415643 C5.1750159,14.381679 4.7132742,14.5380257 4.25886792,14.4619581 L4.25886792,14.4619581 Z M4.25886792,9.36457599 L3.06679245,8.11862814 C2.99401384,7.6436863 3.14360045,7.16107753 3.46900926,6.82096282 C3.79441807,6.48084811 4.25615977,6.32450136 4.71056604,6.400569 L5.90264151,7.64651685 C5.97479151,8.12132491 5.82499803,8.60352738 5.4997486,8.94347551 C5.17449917,9.28342364 4.71314621,9.4399866 4.25886792,9.36457599 L4.25886792,9.36457599 Z M8.67735849,14.4619581 L7.48528302,13.2160102 C7.4125044,12.7410684 7.56209101,12.2584596 7.88749982,11.9183449 C8.21290863,11.5782302 8.67465033,11.4218835 9.1290566,11.4979511 L10.3211321,12.7438989 C10.3945422,13.2189746 10.2451634,13.7019918 9.91959434,14.042274 C9.59402523,14.3825563 9.13189281,14.5386857 8.67735849,14.4619581 L8.67735849,14.4619581 Z M8.67735849,9.36457599 L7.48528302,8.11862814 C7.4125044,7.6436863 7.56209101,7.16107753 7.88749982,6.82096282 C8.21290863,6.48084811 8.67465033,6.32450136 9.1290566,6.400569 L10.3211321,7.64651685 C10.3939107,8.12145869 10.2443241,8.60406746 9.91891527,8.94418217 C9.59350646,9.28429688 9.13176476,9.44064363 8.67735849,9.36457599 L8.67735849,9.36457599 Z M13.0992453,9.36457599 L11.9071698,8.11862814 C11.8343912,7.6436863 11.9839778,7.16107753 12.3093866,6.82096282 C12.6347954,6.48084811 13.0965371,6.32450136 13.5509434,6.400569 L14.7430189,7.64651685 C14.8151689,8.12132491 14.6653754,8.60352738 14.340126,8.94347551 C14.0148765,9.28342364 13.5535236,9.4399866 13.0992453,9.36457599 L13.0992453,9.36457599 Z" id="path-6"></path>
        <filter x="-58.3%" y="-49.6%" width="216.7%" height="239.0%" filterUnits="objectBoundingBox" id="filter-3">
            <feOffset dx="0" dy="3" in="SourceAlpha" result="shadowOffsetOuter1"></feOffset>
            <feGaussianBlur stdDeviation="3" in="shadowOffsetOuter1" result="shadowBlurOuter1"></feGaussianBlur>
            <feColorMatrix values="0 0 0 0 0.21684124   0 0 0 0 0.325918763   0 0 0 0 0.804181749  0 0 0 1 0" type="matrix" in="shadowBlurOuter1"></feColorMatrix>
        </filter>
    </defs>
    <g id="页面-1" stroke="none" stroke-width="1" fill="none" fill-rule="evenodd">
        <g id="设备台账表" transform="translate(-146.000000, -598.000000)">
            <g id="日期" transform="translate(146.000000, 598.000000)">
                <rect id="矩形备份-30" fill="#637DEF" x="0" y="0" width="32" height="32" rx="7"></rect>
                <g id="w_riqi" transform="translate(7.000000, 8.000000)" fill-rule="nonzero">
                    <path d="M5.28168207,0.0297877994 C4.77884806,-0.0964474598 4.41509434,0.196188823 4.41509434,0.5748946 L4.41509434,1.88888889 L5.77358491,1.88888889 L5.77358491,0.597846466 C5.77358491,0.34824493 5.58775495,0.104381362 5.28168207,0.0297877994 Z M12.7499386,0.0297877994 C12.2471045,-0.0964474598 11.8890955,0.196188823 11.8890955,0.5748946 L11.8890955,1.88888889 L13.2418414,1.88888889 L13.2418414,0.597846466 C13.2418414,0.34824493 13.0560114,0.104381362 12.7499386,0.0297877994 Z" id="形状" fill="#FDFDFD"></path>
                    <g id="形状">
                        <use fill="black" fill-opacity="1" filter="url(#filter-3)" xlink:href="#path-6"></use>
                        <use fill="url(#linearGradient-6)" xlink:href="#path-6"></use>
                    </g>
                </g>
            </g>
        </g>
    </g>
</svg>