<?xml version="1.0" encoding="UTF-8"?>
<svg width="32px" height="33px" viewBox="0 0 32 33" version="1.1" xmlns="http://www.w3.org/2000/svg" xmlns:xlink="http://www.w3.org/1999/xlink">
    <defs>
        <linearGradient x1="86.7775662%" y1="82.9920751%" x2="14.0452829%" y2="17.0612193%" id="linearGradient-16">
            <stop stop-color="#C3CAEA" offset="0%"></stop>
            <stop stop-color="#FDFDFD" offset="100%"></stop>
        </linearGradient>
        <path d="M12.8571429,0.615384615 C12.8571429,0.270769231 12.5742857,0 12.2142857,0 C11.8542857,0 11.5714286,0.270769231 11.5714286,0.615384615 L11.5714286,1.23076923 L12.8571429,1.23076923 L12.8571429,0.615384615 Z M6.42857143,0.615384615 C6.42857143,0.270769231 6.14571429,0 5.78571429,0 C5.42571429,0 5.14285714,0.270769231 5.14285714,0.615384615 L5.14285714,1.23076923 L6.42857143,1.23076923 L6.42857143,0.615384615 Z M15.4285714,1.23076923 L12.8571429,1.23076923 L12.8571429,3.07692308 C12.8571429,3.42153846 12.5742857,3.69230769 12.2142857,3.69230769 C11.8542857,3.69230769 11.5714286,3.42153846 11.5714286,3.07692308 L11.5714286,1.23076923 L6.42857143,1.23076923 L6.42857143,3.07692308 C6.42857143,3.42153846 6.14571429,3.69230769 5.78571429,3.69230769 C5.42571429,3.69230769 5.14285714,3.42153846 5.14285714,3.07692308 L5.14285714,1.23076923 L2.57142857,1.23076923 C1.15714286,1.23076923 0,2.33846154 0,3.69230769 L0,13.5384615 C0,14.8923077 1.15714286,16 2.57142857,16 L15.4285714,16 C16.8428571,16 18,14.8923077 18,13.5384615 L18,3.69230769 C18,2.33846154 16.8428571,1.23076923 15.4285714,1.23076923 Z M5.78571429,12.3076923 L4.5,12.3076923 C4.14,12.3076923 3.85714286,12.0369231 3.85714286,11.6923077 C3.85714286,11.3476923 4.14,11.0769231 4.5,11.0769231 L5.78571429,11.0769231 C6.14571429,11.0769231 6.42857143,11.3476923 6.42857143,11.6923077 C6.42857143,12.0369231 6.14571429,12.3076923 5.78571429,12.3076923 Z M5.78571429,9.84615385 L4.5,9.84615385 C4.14,9.84615385 3.85714286,9.57538462 3.85714286,9.23076923 C3.85714286,8.88615385 4.14,8.61538462 4.5,8.61538462 L5.78571429,8.61538462 C6.14571429,8.61538462 6.42857143,8.88615385 6.42857143,9.23076923 C6.42857143,9.57538462 6.14571429,9.84615385 5.78571429,9.84615385 Z M9.64285714,12.3076923 L8.35714286,12.3076923 C7.99714286,12.3076923 7.71428571,12.0369231 7.71428571,11.6923077 C7.71428571,11.3476923 7.99714286,11.0769231 8.35714286,11.0769231 L9.64285714,11.0769231 C10.0028571,11.0769231 10.2857143,11.3476923 10.2857143,11.6923077 C10.2857143,12.0369231 10.0028571,12.3076923 9.64285714,12.3076923 Z M9.64285714,9.84615385 L8.35714286,9.84615385 C7.99714286,9.84615385 7.71428571,9.57538462 7.71428571,9.23076923 C7.71428571,8.88615385 7.99714286,8.61538462 8.35714286,8.61538462 L9.64285714,8.61538462 C10.0028571,8.61538462 10.2857143,8.88615385 10.2857143,9.23076923 C10.2857143,9.57538462 10.0028571,9.84615385 9.64285714,9.84615385 Z M13.5,12.3076923 L12.2142857,12.3076923 C11.8542857,12.3076923 11.5714286,12.0369231 11.5714286,11.6923077 C11.5714286,11.3476923 11.8542857,11.0769231 12.2142857,11.0769231 L13.5,11.0769231 C13.86,11.0769231 14.1428571,11.3476923 14.1428571,11.6923077 C14.1428571,12.0369231 13.86,12.3076923 13.5,12.3076923 Z M13.5,9.84615385 L12.2142857,9.84615385 C11.8542857,9.84615385 11.5714286,9.57538462 11.5714286,9.23076923 C11.5714286,8.88615385 11.8542857,8.61538462 12.2142857,8.61538462 L13.5,8.61538462 C13.86,8.61538462 14.1428571,8.88615385 14.1428571,9.23076923 C14.1428571,9.57538462 13.86,9.84615385 13.5,9.84615385 Z M16.0714286,6.15384615 L1.92857143,6.15384615 C1.56857143,6.15384615 1.28571429,5.88307692 1.28571429,5.53846154 C1.28571429,5.19384615 1.56857143,4.92307692 1.92857143,4.92307692 L16.0714286,4.92307692 C16.4314286,4.92307692 16.7142857,5.19384615 16.7142857,5.53846154 C16.7142857,5.88307692 16.4314286,6.15384615 16.0714286,6.15384615 Z" id="path-16"></path>
        <filter x="-58.3%" y="-46.9%" width="216.7%" height="231.2%" filterUnits="objectBoundingBox" id="filter-3">
            <feOffset dx="0" dy="3" in="SourceAlpha" result="shadowOffsetOuter1"></feOffset>
            <feGaussianBlur stdDeviation="3" in="shadowOffsetOuter1" result="shadowBlurOuter1"></feGaussianBlur>
            <feColorMatrix values="0 0 0 0 0.21684124   0 0 0 0 0.325918763   0 0 0 0 0.804181749  0 0 0 1 0" type="matrix" in="shadowBlurOuter1"></feColorMatrix>
        </filter>
    </defs>
    <g id="页面-1" stroke="none" stroke-width="1" fill="none" fill-rule="evenodd">
        <g id="设备台账表" transform="translate(-246.000000, -598.000000)">
            <g id="日期范围" transform="translate(246.000000, 598.000000)">
                <rect id="矩形备份-30" fill="#637DEF" x="0" y="0" width="32" height="32" rx="7"></rect>
                <g id="riliriqi2" transform="translate(7.000000, 8.000000)" fill-rule="nonzero">
                    <g id="形状">
                        <use fill="black" fill-opacity="1" filter="url(#filter-3)" xlink:href="#path-16"></use>
                        <use fill="url(#linearGradient-16)" xlink:href="#path-16"></use>
                    </g>
                </g>
            </g>
        </g>
    </g>
</svg>