<?xml version="1.0" encoding="UTF-8"?>
<svg width="32px" height="34px" viewBox="0 0 32 34" version="1.1" xmlns="http://www.w3.org/2000/svg" xmlns:xlink="http://www.w3.org/1999/xlink">
    <defs>
        <linearGradient x1="86.7775662%" y1="86.5278129%" x2="14.0452829%" y2="13.531193%" id="chazhao-1">
            <stop stop-color="#C3CAEA" offset="0%"></stop>
            <stop stop-color="#FDFDFD" offset="100%"></stop>
        </linearGradient>
        <path d="M16.8461538,15.6496192 C18.5491814,13.9465917 21.2760986,13.8413475 23.1053199,15.4080494 C24.9345412,16.9747513 25.2496477,19.6854453 23.8285921,21.6299778 C23.716455,21.7824878 23.7324808,21.9940282 23.8663138,22.1279041 L23.8663138,22.1279041 L25.383564,23.6451543 C25.5331761,23.7947984 25.5331761,24.0373854 25.383564,24.1870294 C25.23392,24.3366415 24.991333,24.3366415 24.841689,24.1870294 L24.841689,24.1870294 L23.3244388,22.6697792 C23.1905628,22.5359462 22.9790225,22.5199204 22.8265124,22.6320575 C20.8819799,24.053113 18.171286,23.7380066 16.604584,21.9087853 C15.0378821,20.0795639 15.1431263,17.3526468 16.8461538,15.6496192 Z M20.5384615,7 C21.8381538,7 22.9109908,8.02084923 22.9947382,9.3003136 L23,9.46153846 L23.000963,13.8032504 C22.1182253,13.2923955 21.093259,13 20,13 C18.5422507,13 17.2059222,13.5198646 16.1662959,14.3843125 L11.3076923,14.3846154 C10.9630769,14.3846154 10.6923077,14.6553846 10.6923077,15 C10.6923077,15.3132867 10.9160839,15.5655435 11.2156851,15.6088193 L11.3076923,15.6153846 L15.0450743,15.6153885 C14.5506666,16.3377875 14.210127,17.1738079 14.0706745,18.0762304 L11.3076923,18.0769231 C10.9944056,18.0769231 10.7421488,18.3006993 10.698873,18.6003005 L10.6923077,18.6923077 L10.698873,18.7843149 C10.7373403,19.0506271 10.9409285,19.2570281 11.2057267,19.2996073 L11.3076923,19.3076923 L14.0077755,19.3081338 C14.0794056,20.7241208 14.6419281,22.0106253 15.5285648,23.0008689 L9.46153846,23 C8.16184615,23 7.08900923,21.9791508 7.00526178,20.6996864 L7,20.5384615 L7,9.46153846 C7,8.16184615 8.02084923,7.08900923 9.3003136,7.00526178 L9.46153846,7 L20.5384615,7 Z M20.4957731,15.2335911 C19.1758736,15.233476 17.9716679,15.9866858 17.3942119,17.1735637 C17.3280894,17.2973413 17.3349135,17.4473617 17.4120003,17.564625 C17.4890871,17.6818884 17.6241052,17.7476364 17.7639549,17.7360116 C17.9038046,17.7243869 18.0261144,17.6372491 18.0827824,17.5088676 C18.5364007,16.5782795 19.4610013,16 20.4957731,16 C20.7074111,16 20.8789776,15.8284335 20.8789776,15.6167955 C20.8789776,15.4051575 20.7074111,15.2335911 20.4957731,15.2335911 Z M18.6923077,10.6923077 L11.3076923,10.6923077 C10.9630769,10.6923077 10.6923077,10.9630769 10.6923077,11.3076923 C10.6923077,11.620979 10.9160839,11.8732359 11.2156851,11.9165116 L11.3076923,11.9230769 L18.6923077,11.9230769 C19.0369231,11.9230769 19.3076923,11.6523077 19.3076923,11.3076923 C19.3076923,10.9630769 19.0369231,10.6923077 18.6923077,10.6923077 Z" id="chazhao-2"></path>
        <filter x="-56.8%" y="-43.4%" width="213.5%" height="221.4%" filterUnits="objectBoundingBox" id="chazhao-3">
            <feOffset dx="0" dy="3" in="SourceAlpha" result="shadowOffsetOuter1"></feOffset>
            <feGaussianBlur stdDeviation="3" in="shadowOffsetOuter1" result="shadowBlurOuter1"></feGaussianBlur>
            <feColorMatrix values="0 0 0 0 0.21684124   0 0 0 0 0.325918763   0 0 0 0 0.804181749  0 0 0 1 0" type="matrix" in="shadowBlurOuter1"></feColorMatrix>
        </filter>
    </defs>
    <g id="页面-1" stroke="none" stroke-width="1" fill="none" fill-rule="evenodd">
        <g id="设备台账表" transform="translate(-341.000000, -758.000000)">
            <g id="查找引用" transform="translate(341.000000, 758.000000)">
                <rect id="关闭系统‘" fill="#637DEF" x="0" y="0" width="32" height="32" rx="7"></rect>
                <g id="形状结合" fill-rule="nonzero">
                    <use fill="black" fill-opacity="1" filter="url(#chazhao-3)" xlink:href="#chazhao-2"></use>
                    <use fill="url(#chazhao-1)" xlink:href="#chazhao-2"></use>
                </g>
            </g>
        </g>
    </g>
</svg>