<?xml version="1.0" encoding="UTF-8"?>
<svg width="32px" height="34px" viewBox="0 0 32 34" version="1.1" xmlns="http://www.w3.org/2000/svg" xmlns:xlink="http://www.w3.org/1999/xlink">
    <defs>
        <linearGradient x1="86.7775662%" y1="87.2449598%" x2="14.0452829%" y2="12.8152046%" id="linearGradient-15">
            <stop stop-color="#C3CAEA" offset="0%"></stop>
            <stop stop-color="#FDFDFD" offset="100%"></stop>
        </linearGradient>
        <path d="M4.67976461,10 C5.90715197,10.9513405 7.43606189,11.4817914 9.04567674,11.4817914 C10.6367967,11.4817914 12.1511349,10.9632729 13.3729178,10.0298311 L13.3729178,10.0298311 C16.5439487,11.1937858 18,15.1819309 18,17 L18,17 L0,17 C0,15.1656594 1.44484229,11.1493104 4.67976461,10 Z M9,0 C11.7616248,0 14,2.2383752 14,5 C14,7.76109033 11.7616248,10 9,10 C6.2383752,10 4,7.7616248 4,5 C4,2.23890967 6.2383752,0 9,0 Z" id="path-15"></path>
        <filter x="-58.3%" y="-44.1%" width="216.7%" height="223.5%" filterUnits="objectBoundingBox" id="filter-3">
            <feOffset dx="0" dy="3" in="SourceAlpha" result="shadowOffsetOuter1"></feOffset>
            <feGaussianBlur stdDeviation="3" in="shadowOffsetOuter1" result="shadowBlurOuter1"></feGaussianBlur>
            <feColorMatrix values="0 0 0 0 0.21684124   0 0 0 0 0.325918763   0 0 0 0 0.804181749  0 0 0 1 0" type="matrix" in="shadowBlurOuter1"></feColorMatrix>
        </filter>
    </defs>
    <g id="页面-1" stroke="none" stroke-width="1" fill="none" fill-rule="evenodd">
        <g id="设备台账表" transform="translate(-46.000000, -758.000000)">
            <g id="用户" transform="translate(46.000000, 758.000000)">
                <rect id="关闭系统‘" fill="#637DEF" x="0" y="0" width="32" height="32" rx="7"></rect>
                <g id="yonghu" transform="translate(7.000000, 8.000000)" fill-rule="nonzero">
                    <g id="形状结合">
                        <use fill="black" fill-opacity="1" filter="url(#filter-3)" xlink:href="#path-15"></use>
                        <use fill="url(#linearGradient-15)" xlink:href="#path-15"></use>
                    </g>
                </g>
            </g>
        </g>
    </g>
</svg>