<?xml version="1.0" encoding="UTF-8"?>
<svg width="32px" height="35px" viewBox="0 0 32 35" version="1.1" xmlns="http://www.w3.org/2000/svg" xmlns:xlink="http://www.w3.org/1999/xlink">
    <defs>
        <linearGradient x1="86.7775662%" y1="91.7555951%" x2="14.0452829%" y2="8.31185571%" id="linearGradient-9">
            <stop stop-color="#C3CAEA" offset="0%"></stop>
            <stop stop-color="#FDFDFD" offset="100%"></stop>
        </linearGradient>
        <path d="M9,18 C4.02945895,18 0,13.9705411 0,9 C0,4.02945895 4.02945895,0 9,0 C13.9705411,0 18,4.02945895 18,9 C18,13.9705411 13.9705411,18 9,18 Z M8.61083564,7.91322736 L8.61083564,5.25010938 C8.61083564,4.83583541 8.27500023,4.5 7.86072627,4.5 C7.4464523,4.5 7.11061689,4.83583541 7.11061689,5.25010938 L7.11061689,9.54141753 L3.8857372,4.96594721 C3.66005116,4.64455253 3.25198548,4.50666643 2.87761303,4.6253003 C2.50324057,4.74393418 2.24906431,5.09167632 2.24967078,5.48439551 L2.24967078,11.6165233 C2.24967078,12.0307972 2.58550728,12.3666326 2.99978125,12.3666326 C3.41405522,12.3666326 3.74989062,12.0307972 3.74989062,11.6165233 L3.74989062,7.37705994 L6.97542657,11.951874 C7.20129993,12.2726684 7.60899925,12.4101161 7.98299263,12.2915548 C8.35698601,12.1729935 8.61103503,11.825762 8.61083564,11.4334257 L8.61083564,10.7692869 C9.26446387,11.9767671 10.6544636,12.5863401 11.9854702,12.2492051 C13.3164767,11.9120702 14.2486879,10.7142969 14.2486879,9.34125711 C14.2486879,7.9682173 13.3164767,6.77044402 11.9854702,6.43330909 C10.6544636,6.09617416 9.26446387,6.70574715 8.61083564,7.91322736 L8.61083564,7.91322736 Z M11.2503281,10.8408196 C10.7069899,10.8521855 10.1999893,10.5688198 9.92498612,10.1000781 C9.64998293,9.63133634 9.64998293,9.05052162 9.92498612,8.58177987 C10.1999893,8.11303813 10.7069899,7.82967247 11.2503281,7.84103835 C12.06647,7.85811092 12.7191712,8.52460851 12.7191712,9.34092898 C12.7191712,10.1572494 12.06647,10.823747 11.2503281,10.8408196 L11.2503281,10.8408196 Z M15.0002188,11.9997812 C15.2733792,12.0078636 15.5293209,11.8667501 15.6682877,11.6314415 C15.8072546,11.3961328 15.8072546,11.1038672 15.6682877,10.8685585 C15.5293209,10.6332499 15.2733792,10.4921364 15.0002188,10.5002188 C14.5947609,10.5122155 14.2722941,10.8443647 14.2722941,11.25 C14.2722941,11.6556353 14.5947609,11.9877845 15.0002188,11.9997812 Z" id="path-9"></path>
        <filter x="-58.3%" y="-41.7%" width="216.7%" height="216.7%" filterUnits="objectBoundingBox" id="filter-3">
            <feOffset dx="0" dy="3" in="SourceAlpha" result="shadowOffsetOuter1"></feOffset>
            <feGaussianBlur stdDeviation="3" in="shadowOffsetOuter1" result="shadowBlurOuter1"></feGaussianBlur>
            <feColorMatrix values="0 0 0 0 0.21684124   0 0 0 0 0.325918763   0 0 0 0 0.804181749  0 0 0 1 0" type="matrix" in="shadowBlurOuter1"></feColorMatrix>
        </filter>
    </defs>
    <g id="页面-1" stroke="none" stroke-width="1" fill="none" fill-rule="evenodd">
        <g id="设备台账表" transform="translate(-146.000000, -518.000000)">
            <g id="编号" transform="translate(146.000000, 518.000000)">
                <rect id="矩形备份-30" fill="#637DEF" x="0" y="0" width="32" height="32" rx="7"></rect>
                <g id="dingdanbianhao" transform="translate(7.287500, 7.287500)" fill-rule="nonzero">
                    <g id="形状">
                        <use fill="black" fill-opacity="1" filter="url(#filter-3)" xlink:href="#path-9"></use>
                        <use fill="url(#linearGradient-9)" xlink:href="#path-9"></use>
                    </g>
                </g>
            </g>
        </g>
    </g>
</svg>