<?xml version="1.0" encoding="UTF-8"?>
<svg width="32px" height="34px" viewBox="0 0 32 34" version="1.1" xmlns="http://www.w3.org/2000/svg" xmlns:xlink="http://www.w3.org/1999/xlink">
    <defs>
        <linearGradient x1="86.7775662%" y1="91.7555951%" x2="14.0452829%" y2="8.31185571%" id="linearGradient-17">
            <stop stop-color="#C3CAEA" offset="0%"></stop>
            <stop stop-color="#FDFDFD" offset="100%"></stop>
        </linearGradient>
        <path d="M7.01434863,18 L10.9882086,18 C11.2157977,18 11.3999148,17.8158829 11.3999148,17.5882938 L11.3999148,13.6246626 C11.3999148,13.3970734 11.2157977,13.2129564 10.9882086,13.2129564 L7.01434863,13.2129564 C6.78675948,13.2129564 6.60264242,13.3970734 6.60264242,13.6246626 L6.60264242,17.5857366 C6.60264242,17.8158829 6.78675948,18 7.01434863,18 Z M0.41426339,11.4101435 L4.38812331,11.4101435 C4.61571246,11.4101435 4.79982952,11.2260264 4.79982952,10.9984373 L4.79982952,7.00923427 C4.79982952,6.78164512 4.61571246,6.59752806 4.38812331,6.59752806 L0.41426339,6.59752806 C0.186674244,6.59752806 0.00253121811,6.78164512 0.00253121811,7.00923427 L0.00253121811,10.9984373 C6.11852582e-13,11.2260264 0.186674244,11.4101435 0.41426339,11.4101435 Z M7.01434863,11.4101435 L10.9882086,11.4101435 C11.2157977,11.4101435 11.3999148,11.2260264 11.3999148,10.9984373 L11.3999148,7.00923427 C11.3999148,6.78164512 11.2157977,6.59752806 10.9882086,6.59752806 L7.01434863,6.59752806 C6.78675948,6.59752806 6.60264242,6.78164512 6.60264242,7.00923427 L6.60264242,10.9984373 C6.60264242,11.2260264 6.78675948,11.4101435 7.01434863,11.4101435 Z M4.38812331,13.2103992 L0.41426339,13.2103992 C0.186674244,13.2103992 0.00255718142,13.3945163 0.00255718142,13.6221054 L0.00255718142,17.5831794 C0.00255718142,17.8107686 0.186674244,17.9948856 0.41426339,17.9948856 L4.38812331,17.9948856 C4.61571246,17.9948856 4.79985548,17.8107686 4.79985548,17.5831794 L4.79985548,13.6246626 C4.8023867,13.3970734 4.61571246,13.2103992 4.38812331,13.2103992 L4.38812331,13.2103992 Z M13.616991,18 L17.5882938,18 C17.8158829,18 18,17.8158829 18,17.5882938 L18,13.6246626 C18,13.3970734 17.8158829,13.2129564 17.5882938,13.2129564 L13.616991,13.2129564 C13.3894019,13.2129564 13.2052589,13.3970734 13.2052589,13.6246626 L13.2052589,17.5857366 C13.2027277,17.8158829 13.3894019,18 13.616991,18 Z M0,0.411706208 L0,4.38300895 C0,4.6105981 0.184117062,4.79471516 0.411706208,4.79471516 L17.5857366,4.79471516 C17.8133258,4.79471516 17.9974428,4.6105981 17.9974428,4.38300895 L17.9974428,0.411706208 C17.9974428,0.184117062 17.8133258,0 17.5857366,0 L0.41426339,0 C0.186674244,0 0,0.184117062 0,0.411706208 Z M13.616991,11.4101435 L17.5882938,11.4101435 C17.8158829,11.4101435 18,11.2260264 18,10.9984373 L18,7.00923427 C18,6.78164512 17.8158829,6.59752806 17.5882938,6.59752806 L13.616991,6.59752806 C13.3894019,6.59752806 13.2052589,6.78164512 13.2052589,7.00923427 L13.2052589,10.9984373 C13.2027277,11.2260264 13.3894019,11.4101435 13.616991,11.4101435 Z" id="path-17"></path>
        <filter x="-58.3%" y="-41.7%" width="216.7%" height="216.7%" filterUnits="objectBoundingBox" id="filter-3">
            <feOffset dx="0" dy="3" in="SourceAlpha" result="shadowOffsetOuter1"></feOffset>
            <feGaussianBlur stdDeviation="3" in="shadowOffsetOuter1" result="shadowBlurOuter1"></feGaussianBlur>
            <feColorMatrix values="0 0 0 0 0.21684124   0 0 0 0 0.325918763   0 0 0 0 0.804181749  0 0 0 1 0" type="matrix" in="shadowBlurOuter1"></feColorMatrix>
        </filter>
    </defs>
    <g id="页面-1" stroke="none" stroke-width="1" fill="none" fill-rule="evenodd">
        <g id="设备台账表" transform="translate(-246.000000, -838.000000)">
            <g id="表格" transform="translate(246.000000, 838.000000)">
                <rect id="关闭系统‘" fill="#637DEF" x="0" y="0" width="32" height="32" rx="7"></rect>
                <g id="biaoge-2" transform="translate(7.000000, 7.000000)" fill-rule="nonzero">
                    <g id="形状">
                        <use fill="black" fill-opacity="1" filter="url(#filter-3)" xlink:href="#path-17"></use>
                        <use fill="url(#linearGradient-17)" xlink:href="#path-17"></use>
                    </g>
                </g>
            </g>
        </g>
    </g>
</svg>