<?xml version="1.0" encoding="UTF-8"?>
<svg width="38px" height="34px" viewBox="0 0 38 34" version="1.1" xmlns="http://www.w3.org/2000/svg" xmlns:xlink="http://www.w3.org/1999/xlink">
    <defs>
        <linearGradient x1="86.7775662%" y1="55.0032592%" x2="14.0452829%" y2="45.0048229%" id="linearGradient-19">
            <stop stop-color="#C3CAEA" offset="0%"></stop>
            <stop stop-color="#FDFDFD" offset="100%"></stop>
        </linearGradient>
        <rect id="path-20" x="3" y="12" width="26" height="9" rx="1"></rect>
        <filter x="-40.4%" y="-83.3%" width="180.8%" height="333.3%" filterUnits="objectBoundingBox" id="filter-30">
            <feOffset dx="0" dy="3" in="SourceAlpha" result="shadowOffsetOuter1"></feOffset>
            <feGaussianBlur stdDeviation="3" in="shadowOffsetOuter1" result="shadowBlurOuter1"></feGaussianBlur>
            <feColorMatrix values="0 0 0 0 0.21684124   0 0 0 0 0.325918763   0 0 0 0 0.804181749  0 0 0 1 0" type="matrix" in="shadowBlurOuter1"></feColorMatrix>
        </filter>
        <linearGradient x1="85.3068756%" y1="91.7555951%" x2="15.4830688%" y2="8.31185571%" id="linearGradient-20">
            <stop stop-color="#C3CAEA" offset="0%"></stop>
            <stop stop-color="#FDFDFD" offset="100%"></stop>
        </linearGradient>
        <path d="M18.4214829,24.2269925 C18.2306781,24.4177973 18.0593973,24.5031944 17.9076406,24.4831839 C17.7558838,24.4631733 17.5878377,24.3610002 17.4035021,24.1766646 C17.3197131,24.0928757 17.1888813,23.9597724 17.0110067,23.7773548 C16.833132,23.5949371 16.6426006,23.4021342 16.4394125,23.1989461 C16.2362243,22.995758 16.0394088,22.796671 15.8489658,22.601685 C15.6585227,22.406699 15.5067437,22.2526485 15.3936287,22.1395334 C15.2389727,21.9757915 15.0985247,21.8648728 14.9722846,21.8067773 C14.8460445,21.7486818 14.7215943,21.7809641 14.5989341,21.9036244 C14.5080746,21.9944838 14.397037,22.0992373 14.2658211,22.2178848 C14.1346052,22.3365324 14.0235675,22.4412859 13.9327081,22.5321453 C13.7695146,22.6869599 13.6265391,22.7461466 13.5037814,22.7097053 C13.3810236,22.6732641 13.3134135,22.5397809 13.3009509,22.3092556 C13.2842988,22.0745409 13.2671429,21.7984356 13.2494832,21.4809397 C13.2318234,21.1634438 13.2112867,20.8362565 13.1878731,20.4993778 C13.1644594,20.1624991 13.1429638,19.8320814 13.123386,19.5081245 C13.1038083,19.1841677 13.0837755,18.898371 13.0632875,18.6507344 C13.0508249,18.4202092 13.0923832,18.2550623 13.1879072,18.1552385 C13.2835415,18.055525 13.4422275,18.0120488 13.6640204,18.0248649 C13.8945456,18.0373275 14.1629659,18.0558843 14.4692811,18.0805353 C14.7755963,18.1051863 15.0927387,18.1315784 15.4207082,18.1597118 C15.7486777,18.1878452 16.0723694,18.2139722 16.3917833,18.2380929 C16.7111971,18.2622136 16.9947223,18.2845179 17.2423589,18.3050059 C17.5161927,18.3244333 17.6843405,18.3971787 17.7468022,18.523242 C17.8092639,18.6493053 17.7566266,18.7920158 17.5888901,18.9513733 L17.4253432,19.1149203 L17.2277239,19.3125396 C17.1595793,19.3806841 17.0936178,19.4487403 17.0298395,19.5167082 C16.9660611,19.584676 16.9069141,19.6459177 16.8523984,19.7004334 C16.7388241,19.8140077 16.6986932,19.9169803 16.7320055,20.0093513 C16.7653179,20.1017223 16.8364369,20.2023706 16.9453625,20.3112962 C17.0668564,20.4327901 17.2249196,20.5931248 17.4195521,20.7923002 C17.6141845,20.9914757 17.8183316,21.1978943 18.0319934,21.411556 C18.2456551,21.6252177 18.4518969,21.833731 18.6507188,22.0370959 C18.8495407,22.2404608 19.0117934,22.4049849 19.1374767,22.5306683 C19.1919395,22.5851311 19.2428183,22.6473673 19.2901132,22.717377 C19.337408,22.7873867 19.3692443,22.8623812 19.3856221,22.9423606 C19.4019999,23.0223401 19.3941868,23.1076579 19.3621828,23.1983142 C19.3301788,23.2889704 19.2619327,23.3865427 19.1574443,23.491031 C19.0347841,23.6136913 18.9177142,23.7328559 18.8062346,23.8485249 C18.694755,23.9641939 18.5665045,24.0903498 18.4214829,24.2269925 L18.4214829,24.2269925 Z" id="path-25"></path>
        <filter x="-165.8%" y="-116.0%" width="431.6%" height="424.9%" filterUnits="objectBoundingBox" id="filter-60">
            <feOffset dx="0" dy="3" in="SourceAlpha" result="shadowOffsetOuter1"></feOffset>
            <feGaussianBlur stdDeviation="3" in="shadowOffsetOuter1" result="shadowBlurOuter1"></feGaussianBlur>
            <feColorMatrix values="0 0 0 0 0.21684124   0 0 0 0 0.325918763   0 0 0 0 0.804181749  0 0 0 1 0" type="matrix" in="shadowBlurOuter1"></feColorMatrix>
        </filter>
    </defs>
    <g id="页面-1" stroke="none" stroke-width="1" fill="none" fill-rule="evenodd">
        <g id="测试流程" transform="translate(-243.000000, -466.000000)">
            <g id="选择器" transform="translate(246.000000, 466.000000)">
                <rect id="矩形备份-62" fill="#637DEF" x="0" y="0" width="32" height="32" rx="7"></rect>
                <g id="矩形" fill-rule="nonzero">
                    <use fill="black" fill-opacity="1" filter="url(#filter-30)" xlink:href="#path-20"></use>
                    <use fill="url(#linearGradient-19)" xlink:href="#path-20"></use>
                </g>
                <polyline id="路径-88" stroke="#637DEF" points="21.4769756 15.4802363 23.8553887 18.4802363 26.2338017 15.4802363"></polyline>
                <g id="形状结合" fill-rule="nonzero">
                    <use fill="black" fill-opacity="1" filter="url(#filter-60)" xlink:href="#path-25"></use>
                    <use fill="url(#linearGradient-20)" xlink:href="#path-25"></use>
                </g>
            </g>
        </g>
    </g>
</svg>