<?xml version="1.0" encoding="UTF-8"?>
<svg width="32px" height="34px" viewBox="0 0 32 34" version="1.1" xmlns="http://www.w3.org/2000/svg" xmlns:xlink="http://www.w3.org/1999/xlink">
    <defs>
        <linearGradient x1="86.7775662%" y1="91.7555951%" x2="14.0452829%" y2="8.31185571%" id="linearGradient-11">
            <stop stop-color="#C3CAEA" offset="0%"></stop>
            <stop stop-color="#FDFDFD" offset="100%"></stop>
        </linearGradient>
        <path d="M15.888391,0 L2.11160897,0 C0.945399538,0 0,0.945399538 0,2.11160897 L0,15.888391 C0,17.0546005 0.945399538,18 2.11160897,18 L15.888391,18 C17.0546005,18 18,17.0546005 18,15.888391 L18,2.11160897 C18,0.945399538 17.0546005,0 15.888391,0 Z M10.3674134,12.5670061 L7.29531568,15.6391039 C6.42066477,16.5534511 5.11962886,16.9227705 3.89503126,16.6043278 C2.67043366,16.2858851 1.71411488,15.3295663 1.39567221,14.1049687 C1.07722955,12.8803711 1.44654894,11.5793352 2.36089614,10.7046843 L5.43299389,7.63258656 C5.67392952,7.38962627 6.06620467,7.38798495 6.30916497,7.62892058 C6.55212527,7.8698562 6.55376659,8.26213136 6.31283096,8.50509165 L3.23340122,11.5771894 C2.63866966,12.1401346 2.39659396,12.9816629 2.60129687,13.774575 C2.80599978,14.5674872 3.42518084,15.1866682 4.218093,15.3913712 C5.01100516,15.5960741 5.85253337,15.3539984 6.41547861,14.7592668 L9.48757637,11.687169 C9.64343439,11.531311 9.87060241,11.4704415 10.0835084,11.5274895 C10.2964144,11.5845375 10.462713,11.7508361 10.519761,11.9637421 C10.576809,12.1766481 10.5159395,12.4038161 10.3600815,12.5596741 L10.3674134,12.5670061 Z M7.66924643,9.48757637 L9.4215886,7.73523422 C9.66934975,7.56749694 10.0018212,7.60209161 10.2097415,7.81724393 C10.4176618,8.03239626 10.4408731,8.36585584 10.2647658,8.60773931 L8.51242363,10.3600815 C8.35656561,10.5159395 8.12939759,10.576809 7.91649157,10.519761 C7.70358555,10.462713 7.53728702,10.2964144 7.48023903,10.0835084 C7.42319103,9.87060241 7.48406052,9.64343439 7.63991854,9.48757637 L7.66924643,9.48757637 Z M15.6391039,7.2879837 L12.5670061,10.3600815 C12.3260705,10.6030418 11.9337953,10.6046831 11.690835,10.3637474 C11.4478747,10.1228118 11.4462334,9.73053667 11.687169,9.48757637 L14.7592668,6.41547861 C15.6375052,5.53657839 15.6375052,4.11230144 14.7592668,3.23340122 C13.8803666,2.35516285 12.4560896,2.35516285 11.5771894,3.23340122 L8.50509165,6.30549898 C8.34923363,6.46135701 8.12206561,6.5222265 7.90915959,6.4651785 C7.69625357,6.40813051 7.52995504,6.24183198 7.47290704,6.02892596 C7.41585905,5.81601994 7.47672854,5.58885192 7.63258656,5.43299389 L10.7046843,2.36089614 C12.0757213,1.04938256 14.2433605,1.0734286 15.584966,2.41503404 C16.9265714,3.75663948 16.9506174,5.92427868 15.6391039,7.29531568 L15.6391039,7.2879837 Z" id="path-11"></path>
        <filter x="-58.3%" y="-41.7%" width="216.7%" height="216.7%" filterUnits="objectBoundingBox" id="filter-3">
            <feOffset dx="0" dy="3" in="SourceAlpha" result="shadowOffsetOuter1"></feOffset>
            <feGaussianBlur stdDeviation="3" in="shadowOffsetOuter1" result="shadowBlurOuter1"></feGaussianBlur>
            <feColorMatrix values="0 0 0 0 0.21684124   0 0 0 0 0.325918763   0 0 0 0 0.804181749  0 0 0 1 0" type="matrix" in="shadowBlurOuter1"></feColorMatrix>
        </filter>
    </defs>
    <g id="页面-1" stroke="none" stroke-width="1" fill="none" fill-rule="evenodd">
        <g id="设备台账表" transform="translate(-146.000000, -678.000000)">
            <g id="链接" transform="translate(146.000000, 678.000000)">
                <rect id="矩形备份-30" fill="#637DEF" x="0" y="0" width="32" height="32" rx="7"></rect>
                <g id="bg-link" transform="translate(7.000000, 7.000000)" fill-rule="nonzero">
                    <g id="形状">
                        <use fill="black" fill-opacity="1" filter="url(#filter-3)" xlink:href="#path-11"></use>
                        <use fill="url(#linearGradient-11)" xlink:href="#path-11"></use>
                    </g>
                </g>
            </g>
        </g>
    </g>
</svg>