<?xml version="1.0" encoding="UTF-8"?>
<svg width="32px" height="34px" viewBox="0 0 32 34" version="1.1" xmlns="http://www.w3.org/2000/svg" xmlns:xlink="http://www.w3.org/1999/xlink">
    <defs>
        <linearGradient x1="86.7775662%" y1="87.2449598%" x2="14.0452829%" y2="12.8152046%" id="linearGradient-12">
            <stop stop-color="#C3CAEA" offset="0%"></stop>
            <stop stop-color="#FDFDFD" offset="100%"></stop>
        </linearGradient>
        <path d="M16.7108566,2.79690799 L9.33747286,2.79690799 C9.14428377,2.79690799 8.95109467,2.70050691 8.82230194,2.57197214 L6.85821282,0.226212608 C6.72942008,0.0655441531 6.53623099,0.00127675587 6.34304191,0.00127675587 L1.32012548,0.00127675587 C0.611765469,-0.0308569427 0,0.547549519 0,1.28662445 L0,15.6825186 C0,16.4215935 0.611765469,17 1.32012548,17 L16.6786584,17 C17.4192166,17 17.9987839,16.3894598 17.9987839,15.6825186 L17.9987839,4.14652307 C18.0309821,3.40744815 17.4192166,2.79690799 16.7108566,2.79690799 L16.7108566,2.79690799 Z M12.8148765,9.19151277 L8.95109467,13.0475558 C8.46812194,13.5295612 7.8241583,13.7866308 7.18019464,13.7866308 C6.53623099,13.7866308 5.89226735,13.5295612 5.40929462,13.0475558 C4.92632188,12.5655505 4.66873643,11.9550103 4.66873643,11.2802028 C4.66873643,10.6053952 4.92632188,9.99485506 5.40929462,9.51284968 L8.62911285,6.29948046 C8.85450013,6.0745446 9.17648194,6.0745446 9.40186922,6.29948046 C9.6272565,6.52441631 9.6272565,6.84575322 9.40186922,7.07068907 L6.18205099,10.2840583 C5.92446554,10.5411278 5.76347461,10.8945985 5.76347463,11.2802028 C5.76347463,11.6658071 5.92446554,12.0192777 6.18205099,12.2763472 C6.72942008,12.82262 7.63096919,12.82262 8.1783383,12.2763472 L12.009922,8.45243783 C12.2997056,8.1632346 12.2997056,7.68122921 12.009922,7.3598923 C11.7201383,7.07068907 11.2049674,7.07068907 10.9151838,7.3598923 L7.11579829,11.1838017 C7.0836001,11.2159354 7.0836001,11.3123365 7.11579829,11.3444701 C7.14799648,11.3766038 7.24459102,11.3766038 7.27678919,11.3444701 L10.4966074,8.13110092 C10.7219947,7.90616507 11.0439765,7.90616507 11.2693638,8.13110092 C11.4947511,8.35603677 11.4947511,8.67737368 11.2693638,8.90230954 L8.04954557,12.1156788 C7.82415828,12.3406146 7.53437464,12.4691494 7.21239283,12.4691494 C6.89041102,12.4691494 6.60062736,12.3406146 6.37524008,12.1156788 C6.1498528,11.8907429 6.02106008,11.6015397 6.02106008,11.2802028 C6.02106008,10.9588658 6.14985282,10.6696626 6.37524008,10.4447268 L10.2068238,6.62081737 C10.5610038,6.26734676 11.0117783,6.0745446 11.5269492,6.0745446 C12.009922,6.0745446 12.4928947,6.26734676 12.8470747,6.62081737 C13.5232365,7.29562491 13.5232365,8.48457153 12.8148765,9.19151277 L12.8148765,9.19151277 Z" id="path-12"></path>
        <filter x="-58.3%" y="-44.1%" width="216.7%" height="223.5%" filterUnits="objectBoundingBox" id="filter-3">
            <feOffset dx="0" dy="3" in="SourceAlpha" result="shadowOffsetOuter1"></feOffset>
            <feGaussianBlur stdDeviation="3" in="shadowOffsetOuter1" result="shadowBlurOuter1"></feGaussianBlur>
            <feColorMatrix values="0 0 0 0 0.21684124   0 0 0 0 0.325918763   0 0 0 0 0.804181749  0 0 0 1 0" type="matrix" in="shadowBlurOuter1"></feColorMatrix>
        </filter>
    </defs>
    <g id="页面-1" stroke="none" stroke-width="1" fill="none" fill-rule="evenodd">
        <g id="设备台账表" transform="translate(-246.000000, -135.000000)">
            <g id="附件" transform="translate(246.000000, 135.000000)">
                <rect id="关闭系统‘" fill="#637DEF" x="0" y="0" width="32" height="32" rx="7"></rect>
                <g id="shangchuanfujian-tianjiafujian-05" transform="translate(7.000000, 8.000000)" fill-rule="nonzero">
                    <g id="形状">
                        <use fill="black" fill-opacity="1" filter="url(#filter-3)" xlink:href="#path-12"></use>
                        <use fill="url(#linearGradient-12)" xlink:href="#path-12"></use>
                    </g>
                </g>
            </g>
        </g>
    </g>
</svg>