<?xml version="1.0" encoding="UTF-8"?>
<svg width="32px" height="34px" viewBox="0 0 32 34" version="1.1" xmlns="http://www.w3.org/2000/svg" xmlns:xlink="http://www.w3.org/1999/xlink">
    <defs>
        <linearGradient x1="86.7775662%" y1="87.2449598%" x2="14.0452829%" y2="12.8152046%" id="linearGradient-13">
            <stop stop-color="#C3CAEA" offset="0%"></stop>
            <stop stop-color="#FDFDFD" offset="100%"></stop>
        </linearGradient>
        <path d="M16.7108566,2.79690799 L9.33747286,2.79690799 C9.14428377,2.79690799 8.95109467,2.70050691 8.82230194,2.57197214 L6.85821282,0.226212608 C6.72942008,0.0655441531 6.53623099,0.00127675587 6.34304191,0.00127675587 L1.32012548,0.00127675587 C0.611765469,-0.0308569427 0,0.547549519 0,1.28662445 L0,15.6825186 C0,16.4215935 0.611765469,17 1.32012548,17 L16.6786584,17 C17.4192166,17 17.9987839,16.3894598 17.9987839,15.6825186 L17.9987839,4.14652307 C18.0309821,3.40744815 17.4192166,2.79690799 16.7108566,2.79690799 L16.7108566,2.79690799 Z M9.81487654,9.19151277 L5.95109467,13.0475558 C5.46812194,13.5295612 4.8241583,13.7866308 4.18019464,13.7866308 C3.53623099,13.7866308 2.89226735,13.5295612 2.40929462,13.0475558 C1.92632188,12.5655505 1.66873643,11.9550103 1.66873643,11.2802028 C1.66873643,10.6053952 1.92632188,9.99485506 2.40929462,9.51284968 L5.62911285,6.29948046 C5.85450013,6.0745446 6.17648194,6.0745446 6.40186922,6.29948046 C6.6272565,6.52441631 6.6272565,6.84575322 6.40186922,7.07068907 L3.18205099,10.2840583 C2.92446554,10.5411278 2.76347461,10.8945985 2.76347463,11.2802028 C2.76347463,11.6658071 2.92446554,12.0192777 3.18205099,12.2763472 C3.72942008,12.82262 4.63096919,12.82262 5.1783383,12.2763472 L9.00992198,8.45243783 C9.29970562,8.1632346 9.29970562,7.68122921 9.00992198,7.3598923 C8.72013834,7.07068907 8.20496742,7.07068907 7.91518378,7.3598923 L4.11579829,11.1838017 C4.0836001,11.2159354 4.0836001,11.3123365 4.11579829,11.3444701 C4.14799648,11.3766038 4.24459102,11.3766038 4.27678919,11.3444701 L7.49660742,8.13110092 C7.7219947,7.90616507 8.04397651,7.90616507 8.26936379,8.13110092 C8.49475108,8.35603677 8.49475108,8.67737368 8.26936379,8.90230954 L5.04954557,12.1156788 C4.82415828,12.3406146 4.53437464,12.4691494 4.21239283,12.4691494 C3.89041102,12.4691494 3.60062736,12.3406146 3.37524008,12.1156788 C3.1498528,11.8907429 3.02106008,11.6015397 3.02106008,11.2802028 C3.02106008,10.9588658 3.14985282,10.6696626 3.37524008,10.4447268 L7.20682378,6.62081737 C7.56100378,6.26734676 8.01177834,6.0745446 8.52694925,6.0745446 C9.00992198,6.0745446 9.49289471,6.26734676 9.84707471,6.62081737 C10.5232365,7.29562491 10.5232365,8.48457153 9.81487654,9.19151277 L9.81487654,9.19151277 Z M15.8148765,9.19151277 L11.9510947,13.0475558 C11.4681219,13.5295612 10.8241583,13.7866308 10.1801946,13.7866308 C9.53623099,13.7866308 8.89226735,13.5295612 8.40929462,13.0475558 C7.92632188,12.5655505 7.66873643,11.9550103 7.66873643,11.2802028 C7.66873643,10.6053952 7.92632188,9.99485506 8.40929462,9.51284968 L11.6291128,6.29948046 C11.8545001,6.0745446 12.1764819,6.0745446 12.4018692,6.29948046 C12.6272565,6.52441631 12.6272565,6.84575322 12.4018692,7.07068907 L9.18205099,10.2840583 C8.92446554,10.5411278 8.76347461,10.8945985 8.76347463,11.2802028 C8.76347463,11.6658071 8.92446554,12.0192777 9.18205099,12.2763472 C9.72942008,12.82262 10.6309692,12.82262 11.1783383,12.2763472 L15.009922,8.45243783 C15.2997056,8.1632346 15.2997056,7.68122921 15.009922,7.3598923 C14.7201383,7.07068907 14.2049674,7.07068907 13.9151838,7.3598923 L10.1157983,11.1838017 C10.0836001,11.2159354 10.0836001,11.3123365 10.1157983,11.3444701 C10.1479965,11.3766038 10.244591,11.3766038 10.2767892,11.3444701 L13.4966074,8.13110092 C13.7219947,7.90616507 14.0439765,7.90616507 14.2693638,8.13110092 C14.4947511,8.35603677 14.4947511,8.67737368 14.2693638,8.90230954 L11.0495456,12.1156788 C10.8241583,12.3406146 10.5343746,12.4691494 10.2123928,12.4691494 C9.89041102,12.4691494 9.60062736,12.3406146 9.37524008,12.1156788 C9.1498528,11.8907429 9.02106008,11.6015397 9.02106008,11.2802028 C9.02106008,10.9588658 9.14985282,10.6696626 9.37524008,10.4447268 L13.2068238,6.62081737 C13.5610038,6.26734676 14.0117783,6.0745446 14.5269492,6.0745446 C15.009922,6.0745446 15.4928947,6.26734676 15.8470747,6.62081737 C16.5232365,7.29562491 16.5232365,8.48457153 15.8148765,9.19151277 L15.8148765,9.19151277 Z" id="path-13"></path>
        <filter x="-58.3%" y="-44.1%" width="216.7%" height="223.5%" filterUnits="objectBoundingBox" id="filter-3">
            <feOffset dx="0" dy="3" in="SourceAlpha" result="shadowOffsetOuter1"></feOffset>
            <feGaussianBlur stdDeviation="3" in="shadowOffsetOuter1" result="shadowBlurOuter1"></feGaussianBlur>
            <feColorMatrix values="0 0 0 0 0.21684124   0 0 0 0 0.325918763   0 0 0 0 0.804181749  0 0 0 1 0" type="matrix" in="shadowBlurOuter1"></feColorMatrix>
        </filter>
    </defs>
    <g id="页面-1" stroke="none" stroke-width="1" fill="none" fill-rule="evenodd">
        <g id="设备台账表" transform="translate(-46.000000, -678.000000)">
            <g id="附件组" transform="translate(46.000000, 678.000000)">
                <rect id="关闭系统‘" fill="#637DEF" x="0" y="0" width="32" height="32" rx="7"></rect>
                <g id="shangchuanfujian-tianjiafujian-05" transform="translate(7.000000, 8.000000)" fill-rule="nonzero">
                    <g id="形状">
                        <use fill="black" fill-opacity="1" filter="url(#filter-3)" xlink:href="#path-13"></use>
                        <use fill="url(#linearGradient-13)" xlink:href="#path-13"></use>
                    </g>
                </g>
            </g>
        </g>
    </g>
</svg>