<?xml version="1.0" encoding="UTF-8"?>
<svg width="29px" height="29px" viewBox="0 0 29 29" version="1.1" xmlns="http://www.w3.org/2000/svg" xmlns:xlink="http://www.w3.org/1999/xlink">
    <g id="页面-1" stroke="none" stroke-width="1" fill="none" fill-rule="evenodd">
        <g id="设备台账表" transform="translate(-17.000000, -463.000000)">
            <g id="高级控件" transform="translate(17.000000, 463.000000)">
                <circle id="椭圆形" fill="#4760CF" cx="14.5" cy="14.5" r="14.5"></circle>
                <g transform="translate(6.000000, 7.000000)" fill="#FFFFFF">
                    <g id="gaojichaxun" fill-rule="nonzero">
                        <path d="M7.41737167,8.53801162 C7.78048635,8.88732946 8.36938255,8.88732946 8.73249723,8.53801162 L15.2731185,4.92985519 C15.6362332,4.58053735 15.6362332,4.01401673 15.2731185,3.66469889 L8.94626469,0.261988384 C8.58315001,-0.0873294612 7.99425381,-0.0873294612 7.63113913,0.261988384 L1.09051783,3.87014481 C0.727403148,4.21946265 0.727403148,4.78598327 1.09051783,5.13530111 L7.41737167,8.53801162 Z" id="路径"></path>
                        <path d="M0.423295409,8.73973754 L6.76552877,12.3760034 C7.10802282,12.6587339 7.5368758,12.8 7.96572877,12.8 C8.39605258,12.8 8.8263764,12.6577432 9.1695008,12.3730315 L11.1704645,11.2014933 C11.1392924,11.006723 11.1236298,10.8100252 11.123608,10.6130495 C11.123608,10.0691847 11.2416949,9.55127489 11.4545455,9.08071795 L8.08171449,11.0552739 L8.00985377,11.1230341 C7.98528173,11.1461125 7.94554546,11.1461125 7.92097342,11.1230341 L7.84617103,11.0525001 L1.33815375,7.32093407 C0.922748387,7.08278272 0.38106148,7.20720789 0.128288265,7.59890939 C-0.12448495,7.99061089 0.00789005011,8.50158619 0.423295409,8.73973754 L0.423295409,8.73973754 Z" id="路径"></path>
                        <path d="M11.4800541,12.006157 L7.89804417,14.208801 L7.82782076,14.2783581 C7.80380857,14.3020485 7.76497767,14.3020485 7.74096549,14.2783581 L7.66786743,14.2059536 L1.30772084,10.375631 C0.901780252,10.1311639 0.372435364,10.2588888 0.125421439,10.6609781 C-0.121592487,11.0630674 0.00756109496,11.5873902 0.413501686,11.8320606 L6.61123097,15.5647592 C6.9459215,15.8549875 7.36500331,16 7.78408512,16 C8.20460426,16 8.62512339,15.8539706 8.96042991,15.5617084 L12.7138917,13.2535084 C12.2156049,12.9319378 11.7944605,12.5061809 11.4800541,12.006157 L11.4800541,12.006157 Z" id="形状"></path>
                    </g>
                    <g id="jiedian" transform="translate(12.000000, 7.000000)">
                        <path d="M5.17108622,4.36435501 C4.81578716,4.36435501 4.51277938,4.59079109 4.39927618,4.90670076 L1.42859099,4.90670076 C0.956032667,4.90670076 0.571448132,4.53978881 0.571448138,4.08890754 C0.571448138,3.63773349 0.956032673,3.27111432 1.42859099,3.27111432 L2.22909962,3.27111432 C2.34360053,3.58509163 2.64566929,3.80988816 2.99961853,3.80988816 C3.3533917,3.80988816 3.65551915,3.58503308 3.77013743,3.27111432 L4.5714677,3.27111432 C5.35912359,3.27117288 6,2.65973104 6,1.90816466 C6,1.15659829 5.35912359,0.545156443 4.57140901,0.545156443 L1.59409204,0.545156443 C1.48135178,0.227782875 1.17746369,0 0.821284299,0 C0.369149508,0 0.00164327492,0.366619172 0.00164327492,0.817734662 C0.00164327492,1.26861593 0.369149508,1.63552788 0.821284299,1.63552788 C1.177405,1.63552788 1.48123441,1.4076279 1.59403336,1.09037144 L4.57140901,1.09037144 C5.04396733,1.09037144 5.42855187,1.45728339 5.42855187,1.90816466 C5.42855187,2.35933871 5.04396733,2.72595788 4.57140901,2.72595788 L3.77471512,2.72595788 C3.6637942,2.40524662 3.35820414,2.17436028 2.99967722,2.17436027 C2.64091554,2.17436027 2.33550155,2.40518806 2.22463931,2.72595788 L1.42859099,2.72595788 C0.640876409,2.72595788 0,3.33739972 0,4.0889661 C0,4.84053247 0.640876415,5.45197431 1.42859099,5.45197431 L4.39733946,5.45197431 C4.50925808,5.77069467 4.81373306,6 5.17108622,6 C5.62298626,6 5.99072725,5.63308805 5.99072725,5.18220678 C5.99078594,4.73103273 5.62298626,4.36435501 5.17108622,4.36435501 Z M0.820873481,1.21310483 C0.602611635,1.21310483 0.425196852,1.03597291 0.425196852,0.818320225 C0.425196852,0.60055043 0.602611629,0.423535611 0.820873481,0.423535611 C1.03901795,0.423535611 1.2165501,0.600550424 1.2165501,0.818320225 C1.2165501,1.03597291 1.03901795,1.21310483 0.820873481,1.21310483 L0.820873481,1.21310483 Z M2.99961853,2.59742744 C3.217763,2.59742744 3.39529516,2.77444225 3.39529516,2.99221205 C3.39529516,3.20986474 3.217763,3.38699666 2.99961853,3.38699666 C2.78135668,3.38699666 2.6039419,3.20986474 2.6039419,2.99221205 C2.60400059,2.7743837 2.78135668,2.59742744 2.99961853,2.59742744 L2.99961853,2.59742744 Z M5.17108622,5.57693283 C4.95282438,5.57693283 4.77540959,5.39980091 4.77540959,5.18214823 C4.77540959,4.96437843 4.95282437,4.78736361 5.17108622,4.78736361 C5.38923069,4.78736361 5.56676285,4.96437843 5.56676285,5.18214823 C5.56676285,5.39980091 5.3892307,5.57693283 5.17108622,5.57693283 Z" id="形状"></path>
                    </g>
                </g>
            </g>
        </g>
    </g>
</svg>