<?xml version="1.0" encoding="UTF-8"?>
<svg width="24px" height="19px" viewBox="0 0 24 19" version="1.1" xmlns="http://www.w3.org/2000/svg" xmlns:xlink="http://www.w3.org/1999/xlink">
    <g id="页面-1" stroke="none" stroke-width="1" fill="none" fill-rule="evenodd">
        <g id="画板备份" transform="translate(-1332.000000, -565.000000)">
            <g id="公用组件" transform="translate(1333.000000, 566.000000)">
                <path d="M11,2 L0.678959144,6.33331872 C0.526192124,6.39745839 0.454345464,6.57329601 0.518485137,6.72606303 C0.549755461,6.80054227 0.609739508,6.85926418 0.684866795,6.88894382 L11,10.9640204 L11,10.9640204 L21.3151332,6.88894382 C21.4692295,6.82806685 21.5447986,6.65379663 21.4839217,6.49970038 C21.454242,6.42457309 21.3955201,6.36458904 21.3210409,6.33331872 L11,2 L11,2 Z" id="路径-172" fill="#D0E4FF"></path>
                <path d="M11,0 L0.678959144,4.33331872 C0.526192124,4.39745839 0.454345464,4.57329601 0.518485137,4.72606303 C0.549755461,4.80054227 0.609739508,4.85926418 0.684866795,4.88894382 L11,8.96402042 L11,8.96402042 L21.3151332,4.88894382 C21.4692295,4.82806685 21.5447986,4.65379663 21.4839217,4.49970038 C21.454242,4.42457309 21.3955201,4.36458904 21.3210409,4.33331872 L11,0 L11,0 Z" id="路径-172" stroke="#4359C7" stroke-width="1.5"></path>
                <polyline id="路径-173" stroke="#646669" stroke-width="1.3" points="0 8.48201021 11 12.9640204 22 8.48201021"></polyline>
                <polyline id="路径-173备份" stroke="#646669" stroke-width="1.3" points="0 12.4820102 11 16.9640204 22 12.4820102"></polyline>
            </g>
        </g>
    </g>
</svg>