<?xml version="1.0" encoding="UTF-8"?>
<svg width="21px" height="20px" viewBox="0 0 21 20" version="1.1" xmlns="http://www.w3.org/2000/svg" xmlns:xlink="http://www.w3.org/1999/xlink">
    <g id="页面-1" stroke="none" stroke-width="1" fill="none" fill-rule="evenodd">
        <g id="画板备份" transform="translate(-1334.000000, -707.000000)">
            <g id="区域" transform="translate(1334.000000, 707.000000)">
                <polygon id="路径-175" fill="#D0E4FF" points="0.762057672 4.29656036 6.70704231 0.919582882 14.7235866 4.29656036 18.0084469 2.60807162 18.0084469 17 14.7235866 19.2727434 6.70704231 15.5774726 0.762057672 18.904799"></polygon>
                <g id="03" fill="#646669" fill-rule="nonzero">
                    <path d="M14.7853357,3.75553588 L7.2720848,0.24800709 L6.73409893,0 L5.88074206,0.442869805 L0,3.75553588 L0,20 L6.8639576,16.2444641 L13.7464664,19.6279894 L14.5998233,20 L15.1192579,19.6811338 L21,16.2444641 L21,0 L14.7853357,3.75553588 Z M1.37279151,4.42869797 L5.954947,1.87776793 L5.954947,15.3055802 L1.37279151,17.8033658 L1.37279151,4.42869797 Z M7.53180212,15.1284322 L7.2720848,15.0044287 L7.2720848,1.62976086 L13.8021201,4.69441984 L13.8021201,18.1930912 L7.53180212,15.1284322 Z M19.7014134,15.5535872 L15.1192579,18.2462356 L15.1192579,4.99557131 L15.5088339,4.74756422 L19.7014134,2.17891939 L19.7014134,15.5535872 L19.7014134,15.5535872 Z" id="形状"></path>
                </g>
            </g>
        </g>
    </g>
</svg>