<?xml version="1.0" encoding="UTF-8"?>
<svg width="18px" height="22px" viewBox="0 0 18 22" version="1.1" xmlns="http://www.w3.org/2000/svg" xmlns:xlink="http://www.w3.org/1999/xlink">
    <g id="页面-1" stroke="none" stroke-width="1" fill="none" fill-rule="evenodd">
        <g id="画板备份" transform="translate(-1257.000000, -705.000000)">
            <g id="定位" transform="translate(1257.000000, 705.000000)">
                <circle id="椭圆形" fill="#D0E4FF" cx="8.5" cy="8.5" r="6.5"></circle>
                <g id="dingwei" fill-rule="nonzero">
                    <path d="M9.11230826,12 C11.042556,12 12.6123083,10.4302477 12.6123083,8.5 C12.6123083,6.56975228 11.042556,5 9.11230826,5 C7.18206054,5 5.61230826,6.56975228 5.61230826,8.5 C5.61230826,10.4302477 7.18206054,12 9.11230826,12 Z M9.0635628,6.6404824 C10.0880087,6.6404824 10.9207988,7.47327249 10.9207988,8.49771838 C10.9207988,9.52216428 10.0880087,10.3549544 9.0635628,10.3549544 C8.03911691,10.3549544 7.20632681,9.52216428 7.20632681,8.49771838 C7.20632681,7.47327249 8.03911691,6.6404824 9.0635628,6.6404824 Z" id="形状" fill="#4359C7"></path>
                    <path d="M18,8.83245781 C18,7.63742036 17.7620605,6.47926679 17.2886345,5.38750419 C16.8348324,4.33508439 16.1847915,3.39085727 15.3556827,2.57941209 C14.529027,1.77042584 13.5674571,1.13602325 12.4955029,0.690957863 C11.3867539,0.231138929 10.2117743,0 9,0 C7.78822567,0 6.61079313,0.233597854 5.50449714,0.690957863 C4.43254293,1.13356432 3.47097302,1.77042584 2.64431725,2.57941209 C1.81766149,3.39085727 1.16516762,4.33508439 0.711365495,5.38750419 C0.240392478,6.47926679 0,7.63742036 0,8.83245781 C0,10.7651727 0.625511038,12.6019895 1.80784955,14.1412764 C1.81766149,14.153571 1.82992641,14.1683246 1.83973835,14.1806192 L8.32542927,21.6827987 L8.33033524,21.6877166 L8.33278823,21.6901755 L8.33769419,21.6950933 C8.34505315,21.704929 8.35486509,21.7123058 8.36222404,21.7221415 L8.37694195,21.736895 L8.39411284,21.7541075 C8.40147179,21.7614843 8.40883074,21.7664021 8.41373671,21.7737789 L8.42109567,21.7811557 C8.42354865,21.7836146 8.42600164,21.7836146 8.42600164,21.7860735 C8.43336059,21.7934503 8.44071954,21.7983682 8.4480785,21.803286 C8.45298446,21.8057449 8.45543745,21.8082039 8.46034342,21.8131217 C8.46770237,21.8180396 8.47506132,21.8254163 8.48487326,21.8303342 C8.48732625,21.8327931 8.49223222,21.835252 8.4946852,21.837711 C8.51921504,21.8549234 8.54619787,21.8721359 8.5731807,21.8868895 C8.58053966,21.8918073 8.58789861,21.8942662 8.59280458,21.8991841 C8.59771055,21.901643 8.60261652,21.9041019 8.60997547,21.9065609 C8.61733442,21.9114787 8.62714636,21.9139376 8.63450531,21.9188555 L8.64922322,21.9262323 C8.65903516,21.9311501 8.6688471,21.933609 8.67865904,21.9385269 C8.683565,21.9409858 8.68601799,21.9409858 8.69092396,21.9434447 C8.70318888,21.9483626 8.7154538,21.9532804 8.72771872,21.9557394 C8.73017171,21.9557394 8.73017171,21.9557394 8.73262469,21.9581983 C8.76206051,21.968034 8.79149632,21.9754108 8.82093213,21.9827875 L8.82338512,21.9827875 C8.83565004,21.9852465 8.85036795,21.9877054 8.86263287,21.9901643 C8.86508585,21.9901643 8.86753884,21.9901643 8.86999182,21.9926232 C8.88225675,21.9950822 8.89452167,21.9950822 8.90433361,21.9975411 L8.91414554,21.9975411 C8.92641047,21.9975411 8.93867539,22 8.94848733,22 L9.05641864,22 C9.06868357,22 9.08094849,21.9975411 9.09076043,21.9975411 L9.10057236,21.9975411 C9.11283729,21.9950822 9.12510221,21.9950822 9.13491415,21.9926232 C9.13736713,21.9926232 9.13982011,21.9926232 9.1422731,21.9901643 C9.15699101,21.9877054 9.16925593,21.9852465 9.18397383,21.9827875 L9.18642682,21.9827875 C9.21586263,21.9754108 9.24529845,21.968034 9.27473426,21.9581983 L9.27718724,21.9581983 C9.28945217,21.9532804 9.30171709,21.9508215 9.31398201,21.9459037 C9.316435,21.9434447 9.32134096,21.9434447 9.32379395,21.9409858 C9.33360589,21.936068 9.34341783,21.933609 9.35322976,21.9286912 C9.35813573,21.9262323 9.3630417,21.9237733 9.36549469,21.9237733 C9.37530662,21.9188555 9.38266558,21.9163966 9.39247751,21.9114787 L9.40719542,21.9041019 C9.41455437,21.8991841 9.42191333,21.8967252 9.42927228,21.8918073 C9.4415372,21.8844305 9.45625511,21.8770538 9.46852003,21.8672181 C9.47097302,21.8647591 9.47587899,21.8623002 9.47833197,21.8598413 C9.48569092,21.8549234 9.49304988,21.8500056 9.50286182,21.8426288 C9.50776778,21.8401699 9.51022077,21.837711 9.51512674,21.8327931 C9.52248569,21.8278753 9.52984464,21.8229574 9.5372036,21.8155806 C9.54210957,21.8131217 9.54701554,21.8082039 9.54946852,21.8057449 C9.55682747,21.8008271 9.56418643,21.7934503 9.5690924,21.7885325 C9.57154538,21.7860735 9.57399836,21.7860735 9.57645135,21.7836146 L9.5838103,21.7762378 C9.59116926,21.77132 9.59607522,21.7639432 9.60343418,21.7590254 C9.61079313,21.7541075 9.6156991,21.7467307 9.62305805,21.739354 C9.62796402,21.7344361 9.63286999,21.7319772 9.63532298,21.7270593 C9.64513491,21.7172237 9.65249387,21.707388 9.66230581,21.6975523 C9.66230581,21.6950933 9.66475879,21.6950933 9.66475879,21.6926344 L9.66721177,21.6901755 C9.66966476,21.6877166 9.66966476,21.6852576 9.67211774,21.6852576 L16.1553557,14.1830781 C16.1676206,14.1707835 16.1774325,14.15603 16.1872445,14.1437353 C17.374489,12.6019895 18,10.7651727 18,8.83245781 Z M3.88062142,3.84575835 C5.24693377,2.50810327 7.06704824,1.77042584 9.00245298,1.77042584 C10.9378577,1.77042584 12.7579722,2.50810327 14.1242845,3.84575835 C15.4856909,5.17849559 16.2363042,6.94892143 16.2363042,8.82999888 C16.2363042,10.3594501 15.7432543,11.8151336 14.8111202,13.0396781 L9.00245298,19.7599195 L3.19623876,13.044596 C2.26165168,11.8200514 1.7686018,10.3643679 1.7686018,8.83245781 C1.7686018,6.94892143 2.51921504,5.17849559 3.88062142,3.84575835 Z" id="形状" fill="#646669"></path>
                </g>
            </g>
        </g>
    </g>
</svg>