<?xml version="1.0" encoding="UTF-8"?>
<svg width="20px" height="20px" viewBox="0 0 20 20" version="1.1" xmlns="http://www.w3.org/2000/svg" xmlns:xlink="http://www.w3.org/1999/xlink">
    <g id="页面-1" stroke="none" stroke-width="1" fill="none" fill-rule="evenodd">
        <g id="画板备份" transform="translate(-1255.000000, -637.000000)">
            <g id="日期范围" transform="translate(1255.000000, 637.000000)">
                <path d="M1,2 L16,2 L16,14 C16,15.1045695 15.1045695,16 14,16 L1,16 L1,16 L1,2 Z" id="矩形" fill="#D0E4FF"></path>
                <g id="rili" fill="#646669" fill-rule="nonzero">
                    <path d="M1.53707629,20 C0.689379159,19.9971126 0.00290609271,19.3150469 0,18.4727923 L0,3.19229555 C0.00290609271,2.35004095 0.689379159,1.66797531 1.53707629,1.66508789 L4.18538135,1.66508789 L4.18538135,0.78939059 C4.18538135,0.353422206 4.54108733,0 4.97987288,0 C5.41865843,0 5.7743644,0.353422206 5.7743644,0.78939059 L5.7743644,1.66508789 L14.2754237,1.66508789 L14.2754237,0.78939059 C14.2972673,0.369249037 14.646495,0.0397251709 15.0699152,0.0397251709 C15.4933355,0.0397251709 15.8425632,0.369249037 15.8644068,0.78939059 L15.8644068,1.66508789 L18.4629237,1.66508789 C19.3115854,1.66566842 19.9994157,2.34908263 20,3.19229555 L20,18.4727923 C19.9994157,19.3160053 19.3115854,19.9994195 18.4629237,20 L1.53707629,20 Z M1.58686441,18.4212188 L18.4184322,18.4212188 L18.4184322,7.24871065 L1.58792374,7.24871065 L1.58686441,18.4212188 Z M1.58686441,5.67413956 L18.4184322,5.67413956 L18.4184322,3.24071151 L15.8697034,3.24071151 L15.8697034,3.61119881 C15.8478598,4.03134037 15.4986321,4.36086423 15.0752119,4.36086423 C14.6517916,4.36086423 14.3025639,4.03134037 14.2807203,3.61119881 L14.2807203,3.24071151 L5.77966103,3.24071151 L5.77966103,3.61119881 C5.77966103,4.0471672 5.42395506,4.4005894 4.98516951,4.4005894 C4.54638395,4.4005894 4.19067798,4.0471672 4.19067798,3.61119881 L4.19067798,3.24071151 L1.58792374,3.24071151 L1.58686441,5.67413956 Z M9.25423728,15.8909588 C8.81545173,15.8909588 8.45974576,15.5375366 8.45974576,15.1015682 C8.45974576,14.6655999 8.81545173,14.3121777 9.25423728,14.3121777 L10.878178,14.3121777 C11.3169635,14.3121777 11.6726695,14.6655999 11.6726695,15.1015682 C11.6726695,15.5375366 11.3169635,15.8909588 10.878178,15.8909588 L9.25423728,15.8909588 Z M4.845339,15.8414904 C4.40655344,15.8414904 4.05084747,15.4880682 4.05084747,15.0520998 C4.05084747,14.6161314 4.40655344,14.2627092 4.845339,14.2627092 L6.46716101,14.2627092 C6.90594657,14.2627092 7.26165254,14.6161314 7.26165254,15.0520998 C7.26165254,15.4880682 6.90594657,15.8414904 6.46716101,15.8414904 L4.845339,15.8414904 Z M13.6652542,11.5103673 C13.2264687,11.5103673 12.8707627,11.1569451 12.8707627,10.7209767 C12.8707627,10.2850084 13.2264687,9.93158616 13.6652542,9.93158616 L15.2870763,9.93158616 C15.7258618,9.93158616 16.0815678,10.2850084 16.0815678,10.7209767 C16.0815678,11.1569451 15.7258618,11.5103673 15.2870763,11.5103673 L13.6652542,11.5103673 Z M9.25423728,11.5103673 C8.81545173,11.5103673 8.45974576,11.1569451 8.45974576,10.7209767 C8.45974576,10.2850084 8.81545173,9.93158616 9.25423728,9.93158616 L10.878178,9.93158616 C11.3169635,9.93158616 11.6726695,10.2850084 11.6726695,10.7209767 C11.6726695,11.1569451 11.3169635,11.5103673 10.878178,11.5103673 L9.25423728,11.5103673 Z M4.845339,11.4608988 C4.40655344,11.4608988 4.05084747,11.1074766 4.05084747,10.6715083 C4.05084747,10.2355399 4.40655344,9.88211766 4.845339,9.88211766 L6.46716101,9.88211766 C6.90594657,9.88211766 7.26165254,10.2355399 7.26165254,10.6715083 C7.26165254,11.1074766 6.90594657,11.4608988 6.46716101,11.4608988 L4.845339,11.4608988 Z" id="形状"></path>
                </g>
                <g id="rili" transform="translate(4.050847, 9.882118)" fill="#4359C7" fill-rule="nonzero">
                    <path d="M5.20338981,6.00884117 C4.76460426,6.00884117 4.40889829,5.65541897 4.40889829,5.21945058 C4.40889829,4.7834822 4.76460426,4.43005999 5.20338981,4.43005999 L6.82733049,4.43005999 C7.26611604,4.43005999 7.62182201,4.7834822 7.62182201,5.21945058 C7.62182201,5.65541897 7.26611604,6.00884117 6.82733049,6.00884117 L5.20338981,6.00884117 Z M0.794491525,5.95937271 C0.355705972,5.95937271 0,5.6059505 0,5.16998212 C0,4.73401373 0.355705972,4.38059152 0.794491525,4.38059152 L2.41631354,4.38059152 C2.85509909,4.38059152 3.21080507,4.73401373 3.21080507,5.16998212 C3.21080507,5.6059505 2.85509909,5.95937271 2.41631354,5.95937271 L0.794491525,5.95937271 Z M9.61440676,1.62824967 C9.17562121,1.62824967 8.81991523,1.27482747 8.81991523,0.838859084 C8.81991523,0.402890699 9.17562121,0.0494684934 9.61440676,0.0494684934 L11.2362288,0.0494684934 C11.6750144,0.0494684934 12.0307203,0.402890699 12.0307203,0.838859084 C12.0307203,1.27482747 11.6750144,1.62824967 11.2362288,1.62824967 L9.61440676,1.62824967 Z M5.20338981,1.62824967 C4.76460426,1.62824967 4.40889829,1.27482747 4.40889829,0.838859084 C4.40889829,0.402890699 4.76460426,0.0494684934 5.20338981,0.0494684934 L6.82733049,0.0494684934 C7.26611604,0.0494684934 7.62182201,0.402890699 7.62182201,0.838859084 C7.62182201,1.27482747 7.26611604,1.62824967 6.82733049,1.62824967 L5.20338981,1.62824967 Z M0.794491525,1.57878118 C0.355705972,1.57878118 0,1.22535898 0,0.78939059 C0,0.353422206 0.355705972,0 0.794491525,0 L2.41631354,0 C2.85509909,0 3.21080507,0.353422206 3.21080507,0.78939059 C3.21080507,1.22535898 2.85509909,1.57878118 2.41631354,1.57878118 L0.794491525,1.57878118 Z" id="形状"></path>
                </g>
            </g>
        </g>
    </g>
</svg>