<?xml version="1.0" encoding="UTF-8"?>
<svg width="23px" height="22px" viewBox="0 0 23 22" version="1.1" xmlns="http://www.w3.org/2000/svg" xmlns:xlink="http://www.w3.org/1999/xlink">
    <g id="页面-1" stroke="none" stroke-width="1" fill="none" fill-rule="evenodd">
        <g id="画板备份" transform="translate(-1255.000000, -776.000000)">
            <g id="星际评价" transform="translate(1255.000000, 776.000000)">
                <circle id="椭圆形" fill="#D0E4FF" cx="6.5" cy="6.5" r="6.5"></circle>
                <g id="xingxing" fill="#646669" fill-rule="nonzero">
                    <path d="M22.2566146,7.74664925 L15.3616533,6.74295899 L12.2794237,0.484175018 C12.1952394,0.312813267 12.0567427,0.174091849 11.8856586,0.0897709867 C11.4565905,-0.122391182 10.9351913,0.0544106253 10.7206573,0.484175018 L7.63842766,6.74295899 L0.743466377,7.74664925 C0.553372919,7.77384953 0.379573186,7.86361045 0.246507765,7.99961184 C-0.0875135968,8.34505537 -0.0820823552,8.89450098 0.26280149,9.23178443 L5.25139695,14.1033542 L4.07281751,20.9823045 C4.04023006,21.1699865 4.07010189,21.3658285 4.15971738,21.5344702 C4.38239829,21.9587945 4.90922873,22.1247162 5.33286558,21.8989539 L11.5000405,18.6512407 L17.6672154,21.8989539 C17.8355839,21.9887148 18.0311086,22.0186351 18.2184864,21.9859948 C18.6910044,21.904394 19.0087321,21.4555894 18.9272634,20.9823045 L17.748684,14.1033542 L22.7372795,9.23178443 C22.8730605,9.09850307 22.962676,8.92442129 22.9898322,8.73401934 C23.063154,8.25801448 22.7318482,7.81736997 22.2566146,7.74664925 Z M15.9905646,13.597319 L17.0514803,19.7876969 L11.5000405,16.8676518 L5.94860068,19.7906405 L7.00951639,13.6002626 L2.5189923,9.21430772 L8.72578999,8.31062441 L11.5000405,2.67952935 L14.274291,8.31062441 L20.4810887,9.21430772 L15.9905646,13.597319 Z" id="形状"></path>
                </g>
            </g>
        </g>
    </g>
</svg>