<?xml version="1.0" encoding="UTF-8"?>
<svg width="26px" height="26px" viewBox="0 0 26 26" version="1.1" xmlns="http://www.w3.org/2000/svg" xmlns:xlink="http://www.w3.org/1999/xlink">
    <title>表字段映射</title>
    <g id="页面-1" stroke="none" stroke-width="1" fill="none" fill-rule="evenodd">
        <g id="画板备份" transform="translate(-749.000000, -154.000000)">
            <g id="表字段映射" transform="translate(750.000000, 155.000000)">
                <path d="M0,0 L18,0 L18,15 C18,17.209139 16.209139,19 14,19 L0,19 L0,19 L0,0 Z" id="矩形" fill="#D0E4FF"></path>
                <rect id="矩形" stroke="#646669" stroke-width="1.5" x="0" y="0" width="24" height="24" rx="2"></rect>
                <rect id="矩形" fill="#646669" x="3" y="5" width="9" height="2"></rect>
                <polygon id="矩形备份-218" fill="#4359C7" points="14 5 21 5 21 7 14 7"></polygon>
                <rect id="矩形备份-219" fill="#4359C7" x="14" y="11.629987" width="7" height="2"></rect>
                <polygon id="矩形备份-220" fill="#4359C7" points="3 18 21 18 21 20 3 20"></polygon>
                <rect id="矩形" fill="#646669" transform="translate(7.500000, 11.000000) rotate(-270.000000) translate(-7.500000, -11.000000) " x="3" y="10" width="9" height="2"></rect>
            </g>
        </g>
    </g>
</svg>