<?xml version="1.0" encoding="UTF-8"?>
<svg width="21px" height="17px" viewBox="0 0 21 17" version="1.1" xmlns="http://www.w3.org/2000/svg" xmlns:xlink="http://www.w3.org/1999/xlink">
    <g id="页面-1" stroke="none" stroke-width="1" fill="none" fill-rule="evenodd">
        <g id="画板备份" transform="translate(-1334.000000, -639.000000)">
            <g id="附件" transform="translate(1334.000000, 639.211383)">
                <rect id="矩形" fill="#D0E4FF" transform="translate(11.500000, 8.288617) rotate(42.000000) translate(-11.500000, -8.288617) " x="3" y="4.78861704" width="17" height="7" rx="3.5"></rect>
                <g id="fujian" transform="translate(0.000000, 0.788617)" fill="#646669" fill-rule="nonzero">
                    <path d="M16.5468156,7.13861295 L9.45107477,0.208150085 C9.16692269,-0.0693833615 8.70744274,-0.0693833615 8.42530593,0.208150085 C8.14115386,0.485683531 8.14115386,0.934461018 8.42530593,1.21002614 L15.5210467,8.14048901 C16.9579292,9.54390281 16.8773187,11.9039213 15.3416883,13.4037829 C14.5920105,14.1359988 13.614608,14.5532831 12.5908544,14.5808396 C11.5812077,14.6083961 10.6441104,14.2521298 9.9548905,13.5789636 L2.06513611,5.87495002 C1.65200721,5.47144395 1.43435881,4.92425035 1.45048091,4.33178533 C1.46861828,3.72554206 1.7285872,3.14488698 2.18403662,2.70004613 C2.63948605,2.25520529 3.23197335,2.00129171 3.8546896,1.98357681 C4.46128374,1.96783023 5.02152683,2.18040904 5.43465574,2.58194679 L13.3183643,10.2820237 C13.6085622,10.5654621 13.5823638,11.0516377 13.2579065,11.3685376 C12.9354644,11.6834692 12.4356792,11.7110257 12.1454813,11.4275873 C12.143466,11.4256189 12.1414508,11.4256189 12.1414508,11.4236506 L5.0557863,4.50302937 C4.77163423,4.22549592 4.31215428,4.22549592 4.03001747,4.50302937 C3.7458654,4.78056282 3.7458654,5.2293403 4.03001747,5.50490543 L11.1217277,12.4314316 L11.1318041,12.4412733 C11.9882908,13.2679686 13.4009901,13.2384438 14.2856905,12.3743503 C15.1724062,11.5082885 15.2006199,10.1245579 14.350179,9.28802091 L6.46647036,1.5859757 L6.46243983,1.58203906 C5.03361841,0.186498539 2.65560815,0.239643242 1.16028305,1.69817008 C0.440834183,2.40086114 0.0297205442,3.32203598 0.00150686312,4.29241888 C-0.026706818,5.27854836 0.342086299,6.19578656 1.03936727,6.87682608 L8.9271064,14.5808396 C9.86823419,15.5000461 11.123743,16 12.480015,16 C12.5303965,16 12.5807781,16 12.6311597,15.9980317 C14.0297522,15.9606336 15.3557952,15.3937567 16.3674572,14.4056589 C17.3791192,13.4175611 17.9595149,12.1204367 17.9978049,10.7563894 C18.0381101,9.37659542 17.5222028,8.09128095 16.5468156,7.13861295 L16.5468156,7.13861295 Z" id="路径"></path>
                </g>
            </g>
        </g>
    </g>
</svg>