<?xml version="1.0" encoding="UTF-8"?>
<svg width="18px" height="17px" viewBox="0 0 18 17" version="1.1" xmlns="http://www.w3.org/2000/svg" xmlns:xlink="http://www.w3.org/1999/xlink">
    <defs>
        <linearGradient x1="50%" y1="12.1477532%" x2="44.3415316%" y2="197.073777%" id="linearGradient-1">
            <stop stop-color="#6893FF" offset="0%"></stop>
            <stop stop-color="#4154B9" offset="100%"></stop>
        </linearGradient>
    </defs>
    <g id="页面-1" stroke="none" stroke-width="1" fill="none" fill-rule="evenodd">
        <g id="数据集管理" transform="translate(-1130.000000, -386.000000)" fill="url(#linearGradient-1)" fill-rule="nonzero">
            <g id="download" transform="translate(1130.000000, 386.000000)">
                <path d="M9.94192426,8.81542683 C10.2157927,8.81542683 10.3275152,8.98797292 10.3275152,9.19561313 L10.3275152,9.19561313 L10.3275152,13.7329213 L11.3484891,13.7328671 C11.4578405,13.7332733 11.6189154,13.7390952 11.6543436,13.794336 C11.6968575,13.8615997 11.6859819,13.9356873 11.6246828,13.9932027 L11.6246828,13.9932027 L9.17271972,16.3201378 C9.12427368,16.3659551 9.05803113,16.390326 8.97992424,16.390326 C8.90181735,16.390326 8.8355748,16.3659551 8.78712876,16.3201378 L8.78712876,16.3201378 L6.3351657,13.9941775 C6.27386662,13.9356873 6.26299098,13.8625746 6.30550485,13.7953108 C6.34703003,13.7290219 6.37866827,13.7338961 6.47654905,13.7338961 L7.63134456,13.7338961 L7.63134456,9.19561313 C7.63134456,8.98797292 7.74405576,8.81542683 8.01693552,8.81542683 L8.01693552,8.81542683 Z M9.10983418,0.00134633753 L9.34553422,0.0116943376 C11.8675835,0.17701738 13.9069695,2.06370887 14.1914754,4.49480652 C14.2153349,4.69292252 14.2266368,4.79258824 14.279379,4.85092915 C14.3308654,4.90805463 14.4338382,4.9311479 14.6372722,4.97976533 C16.8024805,5.48638138 18.2337318,7.48069659 17.9684024,9.6213846 C17.703073,11.7620726 15.8250731,13.3721426 13.5974982,13.3687074 L13.5974982,13.3687074 L13.4471479,13.3683768 C13.327157,13.3670542 13.2584415,13.3604413 13.2082109,13.3273771 C13.1454226,13.2872677 13.1027266,13.187602 13.014823,12.989486 C12.7597773,12.3966402 12.2280691,11.9569459 11.5832501,11.8056517 C11.3233066,11.7448799 11.192707,11.7132786 11.1387091,11.6476451 C11.0859669,11.5807961 11.0859669,11.4750532 11.0859669,11.2611365 L11.0859669,11.2611365 L11.0859669,9.31643957 C11.0859669,8.19743823 10.1487371,7.29030842 8.99260559,7.29030842 C7.83647405,7.29030842 6.89924425,8.19743823 6.89924425,9.31643957 L6.89924425,9.31643957 L6.89900007,11.3594011 C6.89777919,11.5092205 6.89045389,11.5919376 6.84650209,11.6476451 C6.79124841,11.7132786 6.66190454,11.7448799 6.40196105,11.8056517 C6.05160244,11.8883013 5.71756877,12.0596777 5.44130033,12.3209964 C5.2327539,12.5134699 5.06174885,12.7407415 4.93648254,12.9919169 C4.83853282,13.1948946 4.79081372,13.2957758 4.72174661,13.3346697 C4.65393526,13.3723482 4.56728743,13.3650556 4.39524754,13.3516858 C2.07768821,13.1549316 0.236783561,11.3827687 0.0209579982,9.14073781 C-0.194867565,6.89870695 1.27609784,4.82788113 3.51621158,4.22011807 L3.51621158,4.22011807 C3.67946112,4.17514695 3.76234165,4.15326911 3.80880498,4.10586712 C3.85652408,4.05968057 3.87787209,3.97946182 3.91931236,3.82145519 C4.53989125,1.44968683 6.82348493,-0.153628704 9.34553422,0.0116943376 Z" id="形状"></path>
            </g>
        </g>
    </g>
</svg>